<?xml version="1.0" encoding="UTF-8" standalone="no"?>
<!-- Generated by IcoMoon.io -->

<svg
   xmlns:dc="http://purl.org/dc/elements/1.1/"
   xmlns:cc="http://creativecommons.org/ns#"
   xmlns:rdf="http://www.w3.org/1999/02/22-rdf-syntax-ns#"
   xmlns:svg="http://www.w3.org/2000/svg"
   xmlns="http://www.w3.org/2000/svg"
   xmlns:sodipodi="http://sodipodi.sourceforge.net/DTD/sodipodi-0.dtd"
   xmlns:inkscape="http://www.inkscape.org/namespaces/inkscape"
   version="1.1"
   width="16"
   height="16"
   viewBox="0 0 16 16"
   id="svg2"
   inkscape:version="0.91 r13725"
   sodipodi:docname="logo.svg">
  <metadata
     id="metadata10">
    <rdf:RDF>
      <cc:Work
         rdf:about="">
        <dc:format>image/svg+xml</dc:format>
        <dc:type
           rdf:resource="http://purl.org/dc/dcmitype/StillImage" />
        <dc:title></dc:title>
      </cc:Work>
    </rdf:RDF>
  </metadata>
  <defs
     id="defs8" />
  <sodipodi:namedview
     pagecolor="#ffffff"
     bordercolor="#666666"
     borderopacity="1"
     objecttolerance="10"
     gridtolerance="10"
     guidetolerance="10"
     inkscape:pageopacity="0"
     inkscape:pageshadow="2"
     inkscape:window-width="1920"
     inkscape:window-height="1019"
     id="namedview6"
     showgrid="false"
     inkscape:zoom="12.229248"
     inkscape:cx="-14.339571"
     inkscape:cy="-72.122055"
     inkscape:window-x="0"
     inkscape:window-y="32"
     inkscape:window-maximized="1"
     inkscape:current-layer="svg2" />
  <rect
     style="opacity:1;fill:#000000;fill-opacity:1;stroke:#ffffff;stroke-width:0;stroke-linecap:round;stroke-linejoin:round;stroke-miterlimit:4;stroke-dasharray:none;stroke-opacity:1"
     id="rect4206"
     width="55.440857"
     height="25.839693"
     x="-16.844868"
     y="109.8733"
     ry="2.9197392" />
  <path
     style="fill:#000000"
     d="m -40.814453,64.878906 c -5.811786,0 -10.539114,4.716653 -10.560547,10.519532 l -0.002,0 0,0.03906 0,15.416016 3.066406,0 0,-15.455078 c 0.0102,-1.982279 0.789622,-3.84335 2.195313,-5.248047 1.411,-1.412 3.295781,-2.191407 5.300781,-2.191407 l 0,-3.080078 z m -2.140625,6.298828 c -1.168,0 -2.126953,0.953813 -2.126953,2.132813 0,1.175 0.958953,2.130859 2.126953,2.130859 1.174,0 2.121094,-0.955859 2.121094,-2.130859 0,-1.179 -0.947094,-2.132813 -2.121094,-2.132813 z"
     id="path4"
     inkscape:connector-curvature="0" />
  <rect
     ry="0"
     y="73.436546"
     x="-39.315224"
     height="17.417257"
     width="3.0664165"
     id="rect4140"
     style="opacity:1;fill:#000000;fill-opacity:1;stroke:#ffffff;stroke-width:0;stroke-linecap:round;stroke-linejoin:round;stroke-miterlimit:4;stroke-dasharray:none;stroke-opacity:1" />
  <path
     style="fill:#000000"
     inkscape:connector-curvature="0"
     id="path4142"
     d="m -31.401795,19.144741 c 0,1.175 0.958,2.13 2.126,2.13 1.174,0 2.122,-0.955 2.122,-2.13 0,-1.179 -0.948,-2.133 -2.122,-2.133 -1.168,0 -2.126,0.954 -2.126,2.133 z m -6.297,2.128 3.067,0 c 0,-1.997 0.781,-3.874 2.196,-5.288 1.411,-1.412 3.297,-2.192 5.302,-2.192 l 0,-3.08 c -5.825,0 -10.564,4.739 -10.564,10.56 z m -5.436,-0.004 3.068,0 c 0,-7.122 5.802,-12.9180001 12.932,-12.9180001 l 0,-3.076 c -8.82,0 -16,7.1760001 -16,15.9940001 z" />
  <path
     style="fill:#000000"
     d="M -33.759766 80.234375 C -33.759766 84.782094 -30.864979 88.655178 -26.828125 90.140625 C -29.074116 92.018418 -31.962642 93.152344 -35.113281 93.152344 L -35.113281 96.228516 C -26.293281 96.228516 -19.113281 89.052375 -19.113281 80.234375 L -22.181641 80.234375 C -22.181641 82.976608 -23.046776 85.517425 -24.511719 87.611328 C -26.008304 87.346269 -27.387806 86.636409 -28.486328 85.537109 C -29.898328 84.126109 -30.679687 82.239375 -30.679688 80.234375 L -33.759766 80.234375 z "
     id="path4144" />
  <g
     id="g4152"
     transform="translate(90.781959,-54.351696)">
    <path
       d="m 11.7325,13.8705 c 0,1.175 0.958,2.13 2.126,2.13 1.174,0 2.122,-0.955 2.122,-2.13 0,-1.179 -0.948,-2.133 -2.122,-2.133 -1.168,0 -2.126,0.954 -2.126,2.133 z m -6.297,2.128 3.067,0 c 0,-1.997 0.781,-3.874 2.196,-5.288 1.411,-1.412 3.297,-2.192 5.302,-2.192 l 0,-3.08 c -5.825,0 -10.564,4.739 -10.564,10.56 z"
       id="path4154"
       inkscape:connector-curvature="0"
       style="fill:#000000"
       sodipodi:nodetypes="sssssccccccc" />
    <rect
       style="opacity:1;fill:#000000;fill-opacity:1;stroke:#ffffff;stroke-width:0;stroke-linecap:round;stroke-linejoin:round;stroke-miterlimit:4;stroke-dasharray:none;stroke-opacity:1"
       id="rect4156"
       width="3.0664172"
       height="15.454749"
       x="5.4377842"
       y="15.959115"
       ry="0" />
  </g>
  <path
     sodipodi:nodetypes="ccccc"
     d="m -5.2495527,38.361771 2.169403,-2.169403 c -5.036014,-5.036015 -5.031772,-13.237039 0.0099,-18.278711 l -2.175061,-2.17506 c -6.2366813,6.236682 -6.2395103,16.387907 -0.0042,22.623174 z"
     id="path4158"
     inkscape:connector-curvature="0"
     style="fill:#000000" />
  <path
     d="m 117.52154,-22.316522 0,-3.067 c -1.997,0 -3.874,-0.781 -5.288,-2.196001 -1.412,-1.411 -2.192,-3.297 -2.192,-5.302 l -3.08,0 c 0,5.825 4.739,10.564001 10.56002,10.56398 z"
     id="path4160"
     inkscape:connector-curvature="0"
     style="fill:#000000"
     sodipodi:nodetypes="ccccccc" />
  <path
     d="m 34.955514,-14.177014 c 0,1.175 0.958,2.13 2.126,2.13 1.174,0 2.122,-0.955 2.122,-2.13 0,-1.179 -0.948,-2.133 -2.122,-2.133 -1.168,0 -2.126,0.954 -2.126,2.133 z"
     id="path4164"
     inkscape:connector-curvature="0"
     style="fill:#000000"
     sodipodi:nodetypes="sssss" />
  <path
     sodipodi:nodetypes="ccccccc"
     style="fill:#000000"
     inkscape:connector-curvature="0"
     id="path4170"
     d="m 58.591465,-28.095339 2.168697,-2.168696 c -1.412093,-1.412092 -2.187082,-3.291582 -2.186374,-5.291987 -7.08e-4,-1.996163 0.781353,-3.881309 2.199102,-5.299058 l -2.177889,-2.177889 c -4.118897,4.118897 -4.118897,10.820855 -0.0028,14.936923 z" />
  <path
     sodipodi:nodetypes="sssss"
     style="fill:#000000"
     inkscape:connector-curvature="0"
     id="path4172"
     d="m 79.242205,-36.132539 c 0,1.175 0.958,2.13 2.126,2.13 1.174,0 2.122,-0.955 2.122,-2.13 0,-1.179 -0.948,-2.133 -2.122,-2.133 -1.168,0 -2.126,0.954 -2.126,2.133 z" />
  <path
     sodipodi:nodetypes="ccccccc"
     style="fill:#000000"
     inkscape:connector-curvature="0"
     id="path4174"
     d="m 106.95905,-32.949286 3.067,10e-7 c 0,-1.997001 0.781,-3.874001 2.196,-5.288001 1.411,-1.412001 3.297,-2.192 5.302,-2.192 l 0,-3.08 c -5.825,0 -10.564,4.739001 -10.56398,10.560021 z" />
  <path
     d="m 117.42827,-43.511776 0,3.067 c 1.997,0 3.874,0.781 5.288,2.196001 1.412,1.411 2.192,3.297 2.192,5.302 l 3.08,0 c 0,-5.825 -4.739,-10.564001 -10.56002,-10.56398 z"
     id="path4176"
     inkscape:connector-curvature="0"
     style="fill:#000000"
     sodipodi:nodetypes="ccccccc" />
  <rect
     style="opacity:1;fill:#000000;fill-opacity:1;stroke:#ffffff;stroke-width:0;stroke-linecap:round;stroke-linejoin:round;stroke-miterlimit:4;stroke-dasharray:none;stroke-opacity:1"
     id="rect4178"
     width="3.0664165"
     height="17.580799"
     x="32.893475"
     y="108.79206"
     ry="0"
     transform="matrix(0,-1,1,0,0,0)" />
  <path
     sodipodi:nodetypes="ccccccc"
     style="fill:#000000"
     inkscape:connector-curvature="0"
     id="path4180"
     d="m 140.41747,-22.316522 0,-3.067 c -1.997,0 -3.874,-0.781 -5.288,-2.196001 -1.412,-1.411 -2.192,-3.297 -2.192,-5.302 l -3.08,0 c 0,5.825 4.739,10.564001 10.56002,10.56398 z" />
  <path
     d="m 129.85498,-32.949286 3.067,10e-7 c 0,-1.997001 0.781,-3.874001 2.196,-5.288001 1.411,-1.412001 3.297,-2.192 5.302,-2.192 l 0,-3.08 c -5.825,0 -10.564,4.739001 -10.56398,10.560021 z"
     id="path4182"
     inkscape:connector-curvature="0"
     style="fill:#000000"
     sodipodi:nodetypes="ccccccc" />
  <path
     sodipodi:nodetypes="ccccccc"
     style="fill:#000000"
     inkscape:connector-curvature="0"
     id="path4184"
     d="m 140.3242,-43.511776 0,3.067 c 1.997,0 3.874,0.781 5.288,2.196001 1.412,1.411 2.192,3.297 2.192,5.302 l 3.08,0 c 0,-5.825 -4.739,-10.564001 -10.56002,-10.56398 z" />
  <rect
     transform="matrix(0,-1,1,0,0,0)"
     ry="0"
     y="131.688"
     x="32.893475"
     height="17.580799"
     width="3.0664165"
     id="rect4186"
     style="opacity:1;fill:#000000;fill-opacity:1;stroke:#ffffff;stroke-width:0;stroke-linecap:round;stroke-linejoin:round;stroke-miterlimit:4;stroke-dasharray:none;stroke-opacity:1" />
  <text
     xml:space="preserve"
     style="font-style:normal;font-weight:normal;font-size:28.28451347px;line-height:125%;font-family:sans-serif;letter-spacing:9.88849831px;word-spacing:0px;fill:#000000;fill-opacity:1;stroke:none;stroke-width:1px;stroke-linecap:butt;stroke-linejoin:miter;stroke-opacity:1"
     x="-19.880659"
     y="91.425613"
     id="text4188"
     sodipodi:linespacing="125%"
     transform="scale(0.9999985,1.0000015)"><tspan
       sodipodi:role="line"
       id="tspan4190"
       x="-19.880659"
       y="91.425613"
       style="font-style:normal;font-variant:normal;font-weight:300;font-stretch:normal;font-size:28.28451347px;line-height:125%;font-family:'Adobe Ming Std';-inkscape-font-specification:'Adobe Ming Std, Light';text-align:start;letter-spacing:-0.79874861px;writing-mode:lr-tb;text-anchor:start">feed</tspan></text>
  <path
     inkscape:connector-curvature="0"
     id="path4196"
     d="m -40.814453,106.25512 c -5.811786,0 -10.539114,4.71665 -10.560547,10.51953 l -0.002,0 0,0.0391 0,15.41602 3.066406,0 0,-15.45508 c 0.0102,-1.98228 0.789622,-3.84335 2.195313,-5.24805 1.411,-1.412 3.295781,-2.1914 5.300781,-2.1914 l 0,-3.08008 z m -2.140625,6.29883 c -1.168,0 -2.126953,0.95381 -2.126953,2.13281 0,1.175 0.958953,2.13086 2.126953,2.13086 1.174,0 2.121094,-0.95586 2.121094,-2.13086 0,-1.179 -0.947094,-2.13281 -2.121094,-2.13281 z"
     style="fill:#000000" />
  <rect
     style="opacity:1;fill:#000000;fill-opacity:1;stroke:#ffffff;stroke-width:0;stroke-linecap:round;stroke-linejoin:round;stroke-miterlimit:4;stroke-dasharray:none;stroke-opacity:1"
     id="rect4198"
     width="3.0664165"
     height="17.417257"
     x="-39.315224"
     y="114.81276"
     ry="0" />
  <path
     id="path4200"
     d="m -33.759766,121.61059 c 0,4.54772 2.894787,8.4208 6.931641,9.90625 -2.245991,1.87779 -5.134517,3.01172 -8.285156,3.01172 l 0,3.07617 c 8.82,0 16,-7.17614 16,-15.99414 l -3.06836,0 c 0,2.74223 -0.865135,5.28305 -2.330078,7.37695 -1.496585,-0.26506 -2.876087,-0.97492 -3.974609,-2.07422 -1.412,-1.411 -2.193359,-3.29773 -2.19336,-5.30273 l -3.080078,0 z"
     style="fill:#000000"
     inkscape:connector-curvature="0" />
  <text
     transform="scale(0.9999985,1.0000015)"
     sodipodi:linespacing="125%"
     id="text4202"
     y="132.80177"
     x="-15.093643"
     style="font-style:normal;font-weight:normal;font-size:28.28451347px;line-height:125%;font-family:sans-serif;letter-spacing:9.88849831px;word-spacing:0px;fill:#ffffff;fill-opacity:1;stroke:none;stroke-width:1px;stroke-linecap:butt;stroke-linejoin:miter;stroke-opacity:1"
     xml:space="preserve"><tspan
       style="font-style:normal;font-variant:normal;font-weight:300;font-stretch:normal;font-size:28.28451347px;line-height:125%;font-family:'Adobe Ming Std';-inkscape-font-specification:'Adobe Ming Std, Light';text-align:start;letter-spacing:-0.79874861px;writing-mode:lr-tb;text-anchor:start;fill:#ffffff"
       y="132.80177"
       x="-15.093643"
       id="tspan4204"
       sodipodi:role="line">feed</tspan></text>
  <path
     inkscape:connector-curvature="0"
     id="path4208"
     d="m 82.496481,64.878906 c -5.811786,0 -10.539114,4.716653 -10.560547,10.519532 l -0.002,0 0,0.03906 0,15.416016 3.066406,0 0,-15.455078 c 0.0102,-1.982279 0.789622,-3.84335 2.195313,-5.248047 1.411,-1.412 3.295781,-2.191407 5.300781,-2.191407 l 0,-3.080078 z m -2.140625,6.298828 c -1.168,0 -2.126953,0.953813 -2.126953,2.132813 0,1.175 0.958953,2.130859 2.126953,2.130859 1.174,0 2.121094,-0.955859 2.121094,-2.130859 0,-1.179 -0.947094,-2.132813 -2.121094,-2.132813 z"
     style="fill:#000000" />
  <rect
     style="opacity:1;fill:#000000;fill-opacity:1;stroke:#ffffff;stroke-width:0;stroke-linecap:round;stroke-linejoin:round;stroke-miterlimit:4;stroke-dasharray:none;stroke-opacity:1"
     id="rect4210"
     width="3.0664165"
     height="17.417257"
     x="83.995712"
     y="73.436546"
     ry="0" />
  <path
     id="path4212"
     d="m 89.551168,80.234375 c 0,4.547719 2.894787,8.420803 6.931641,9.90625 -2.245991,1.877793 -5.134517,3.011719 -8.285156,3.011719 l 0,3.076172 c 8.82,0 15.999997,-7.176141 15.999997,-15.994141 l -3.06836,0 c 0,2.742233 -0.86513,5.28305 -2.330075,7.376953 -1.496585,-0.265059 -2.876087,-0.974919 -3.974609,-2.074219 -1.412,-1.411 -2.193359,-3.297734 -2.19336,-5.302734 l -3.080078,0 z"
     style="fill:#000000"
     inkscape:connector-curvature="0" />
  <text
     transform="scale(0.9999985,1.0000015)"
     sodipodi:linespacing="125%"
     id="text4214"
     y="91.425613"
     x="104.0895"
     style="font-style:normal;font-variant:normal;font-weight:300;font-stretch:normal;font-size:25.64411163px;line-height:125%;font-family:'Code Light';-inkscape-font-specification:'Code Light, Light';text-align:start;letter-spacing:8.96523762px;word-spacing:0px;writing-mode:lr-tb;text-anchor:start;fill:#000000;fill-opacity:1;stroke:none;stroke-width:1px;stroke-linecap:butt;stroke-linejoin:miter;stroke-opacity:1"
     xml:space="preserve"><tspan
       style="font-style:normal;font-variant:normal;font-weight:300;font-stretch:normal;font-size:25.64411163px;line-height:125%;font-family:'Code Light';-inkscape-font-specification:'Code Light, Light';text-align:start;letter-spacing:0.5px;writing-mode:lr-tb;text-anchor:start"
       y="91.425613"
       x="104.0895"
       id="tspan4216"
       sodipodi:role="line">feed</tspan></text>
</svg>
