<?xml version="1.0" encoding="UTF-8" standalone="no"?>
<!-- Generated by IcoMoon.io -->

<svg
   xmlns:dc="http://purl.org/dc/elements/1.1/"
   xmlns:cc="http://creativecommons.org/ns#"
   xmlns:rdf="http://www.w3.org/1999/02/22-rdf-syntax-ns#"
   xmlns:svg="http://www.w3.org/2000/svg"
   xmlns="http://www.w3.org/2000/svg"
   xmlns:sodipodi="http://sodipodi.sourceforge.net/DTD/sodipodi-0.dtd"
   xmlns:inkscape="http://www.inkscape.org/namespaces/inkscape"
   version="1.1"
   width="82.211296"
   height="31.349611"
   viewBox="0 0 82.211296 31.349611"
   id="svg2"
   inkscape:version="0.91 r13725"
   sodipodi:docname="logo.svg">
  <metadata
     id="metadata10">
    <rdf:RDF>
      <cc:Work
         rdf:about="">
        <dc:format>image/svg+xml</dc:format>
        <dc:type
           rdf:resource="http://purl.org/dc/dcmitype/StillImage" />
        <dc:title></dc:title>
      </cc:Work>
    </rdf:RDF>
  </metadata>
  <defs
     id="defs8" />
  <sodipodi:namedview
     pagecolor="#ffffff"
     bordercolor="#666666"
     borderopacity="1"
     objecttolerance="10"
     gridtolerance="10"
     guidetolerance="10"
     inkscape:pageopacity="0"
     inkscape:pageshadow="2"
     inkscape:window-width="1920"
     inkscape:window-height="1019"
     id="namedview6"
     showgrid="false"
     inkscape:zoom="4.3236921"
     inkscape:cx="-16.712832"
     inkscape:cy="59.556701"
     inkscape:window-x="0"
     inkscape:window-y="32"
     inkscape:window-maximized="1"
     inkscape:current-layer="svg2"
     fit-margin-top="0"
     fit-margin-left="0"
     fit-margin-right="0"
     fit-margin-bottom="0" />
  <path
     style="fill:#008080"
     d="M 10.562547,2e-6 C 4.750761,2e-6 0.023433,4.716655 0.002,10.519534 l -0.002,0 0,0.03906 0,15.416016 3.066406,0 0,-15.455078 C 3.076606,8.537253 3.856028,6.676182 5.261719,5.271485 6.672719,3.859485 8.5575,3.080078 10.5625,3.080078 L 10.5625,0 Z M 8.421922,6.29883 c -1.168,0 -2.126953,0.953813 -2.126953,2.132813 0,1.175 0.958953,2.130859 2.126953,2.130859 1.174,0 2.121094,-0.955859 2.121094,-2.130859 0,-1.179 -0.947094,-2.132813 -2.121094,-2.132813 z"
     id="path4"
     inkscape:connector-curvature="0" />
  <path
     style="opacity:1;fill:#008080;fill-opacity:1;stroke:#ffffff;stroke-width:0;stroke-linecap:round;stroke-linejoin:round;stroke-miterlimit:4;stroke-dasharray:none;stroke-opacity:1"
     d="m 12.061776,8.557642 3.066417,0 0,17.417257 -3.066417,0 z"
     id="rect4140" />
  <path
     style="fill:#008080"
     d="m 17.617234,15.355471 c 0,4.547719 2.894787,8.420803 6.931641,9.90625 -2.245991,1.877793 -5.134517,3.011719 -8.285156,3.011719 l 0,3.076172 c 8.82,0 16,-7.176141 16,-15.994141 l -3.06836,0 c 0,2.742233 -0.865135,5.28305 -2.330078,7.376953 -1.496585,-0.265059 -2.876087,-0.974919 -3.974609,-2.074219 -1.412,-1.411 -2.193359,-3.297734 -2.19336,-5.302734 l -3.080078,0 z"
     id="path4144"
     inkscape:connector-curvature="0" />
  <g
     transform="scale(0.9999985,1.0000015)"
     style="font-style:normal;font-weight:normal;font-size:28.28451347px;line-height:125%;font-family:sans-serif;letter-spacing:9.88849831px;word-spacing:0px;fill:#4d4d4d;fill-opacity:1;stroke:none;stroke-width:1px;stroke-linecap:butt;stroke-linejoin:miter;stroke-opacity:1"
     id="text4188">
    <path
       d="m 37.379597,14.10162 3.874978,0 0,-0.87682 -3.874978,0 0,-2.404183 c 0,-3.0264431 0.735397,-4.3275307 2.63046,-4.3275307 1.612217,0 2.291045,0.8768199 2.291045,1.6970708 l 0,0.5939748 c 0,0.2545606 0.226276,0.8485354 0.905105,0.8485354 0.480836,0 0.876819,-0.3676987 0.876819,-0.8202509 0,-2.1213385 -2.206192,-3.139581 -4.101254,-3.139581 -1.272803,0 -2.262761,0.4808367 -2.913305,1.4142257 -0.735397,1.0748115 -1.13138,2.7435978 -1.13138,4.9215049 l 0,1.216234 -3.705272,0 0,0.87682 3.705272,0 0,10.238994 c 0,0.820251 -0.367699,1.301088 -1.272803,1.301088 l -1.612218,0 0,0.87682 7.212551,0 0,-0.87682 -1.640502,0 c -0.905104,0 -1.244518,-0.424268 -1.244518,-1.301088 l 0,-10.238994 z"
       style="font-style:normal;font-variant:normal;font-weight:300;font-stretch:normal;font-size:28.28451347px;line-height:125%;font-family:'Adobe Ming Std';-inkscape-font-specification:'Adobe Ming Std, Light';text-align:start;letter-spacing:-0.79874861px;writing-mode:lr-tb;text-anchor:start;fill:#4d4d4d"
       id="path4299" />
    <path
       d="m 53.564814,19.447393 c 0,-3.988116 -2.573891,-6.64686 -5.685187,-6.64686 -2.969874,0 -5.911464,2.856736 -5.911464,7.297404 0,3.111297 1.838494,6.957991 6.194309,6.957991 2.291045,0 3.478995,-0.763682 5.713472,-3.620418 l -0.735398,-0.509121 c -1.301087,1.781924 -2.517322,3.252719 -4.695229,3.252719 -2.856736,0 -5.034643,-2.94159 -5.034643,-6.081171 l 0,-0.650544 10.15414,0 z M 43.467243,18.570574 c 0.424267,-2.885021 2.262761,-4.893221 4.412384,-4.893221 1.244518,0 2.206192,0.395983 2.941589,1.187949 0.763682,0.791967 1.159665,2.036485 1.272803,3.705272 l -8.626776,0 z"
       style="font-style:normal;font-variant:normal;font-weight:300;font-stretch:normal;font-size:28.28451347px;line-height:125%;font-family:'Adobe Ming Std';-inkscape-font-specification:'Adobe Ming Std, Light';text-align:start;letter-spacing:-0.79874861px;writing-mode:lr-tb;text-anchor:start;fill:#4d4d4d"
       id="path4301" />
    <path
       d="m 66.742593,19.447393 c 0,-3.988116 -2.573891,-6.64686 -5.685187,-6.64686 -2.969874,0 -5.911463,2.856736 -5.911463,7.297404 0,3.111297 1.838493,6.957991 6.194308,6.957991 2.291046,0 3.478995,-0.763682 5.713472,-3.620418 l -0.735398,-0.509121 c -1.301087,1.781924 -2.517321,3.252719 -4.695229,3.252719 -2.856736,0 -5.034643,-2.94159 -5.034643,-6.081171 l 0,-0.650544 10.15414,0 z M 56.645022,18.570574 c 0.424267,-2.885021 2.262761,-4.893221 4.412384,-4.893221 1.244518,0 2.206192,0.395983 2.941589,1.187949 0.763682,0.791967 1.159665,2.036485 1.272803,3.705272 l -8.626776,0 z"
       style="font-style:normal;font-variant:normal;font-weight:300;font-stretch:normal;font-size:28.28451347px;line-height:125%;font-family:'Adobe Ming Std';-inkscape-font-specification:'Adobe Ming Std, Light';text-align:start;letter-spacing:-0.79874861px;writing-mode:lr-tb;text-anchor:start;fill:#4d4d4d"
       id="path4303" />
    <path
       d="m 79.694095,5.6728354 c -1.385941,0.7636819 -2.602175,1.159665 -3.620418,1.159665 l 0,0.87682 c 1.951632,0 2.177908,0.084853 2.177908,0.7919663 l 0,6.1943083 c -1.018242,-1.046527 -2.291046,-1.555648 -3.818409,-1.555648 -3.50728,0 -6.109455,3.054727 -6.109455,6.477154 0,4.242677 2.291045,7.099412 5.628618,7.099412 2.121338,0 3.224435,-0.622259 4.299246,-2.0082 l 0,1.810209 3.959832,0 0,-0.87682 -1.159665,0 c -0.735397,0 -1.357657,-0.367699 -1.357657,-1.555648 l 0,-18.4132186 z m -1.44251,16.9424236 c -0.367699,1.555648 -1.866778,3.111296 -3.931547,3.111296 -3.252719,0 -4.412384,-3.478995 -4.412384,-6.109454 0,-3.648703 2.375899,-5.487196 4.525522,-5.487196 2.064769,0 3.507279,1.44251 3.818409,2.149623 l 0,6.335731 z"
       style="font-style:normal;font-variant:normal;font-weight:300;font-stretch:normal;font-size:28.28451347px;line-height:125%;font-family:'Adobe Ming Std';-inkscape-font-specification:'Adobe Ming Std, Light';text-align:start;letter-spacing:-0.79874861px;writing-mode:lr-tb;text-anchor:start;fill:#4d4d4d"
       id="path4305" />
  </g>
</svg>
