<?xml version="1.0" encoding="UTF-8" standalone="no"?>
<svg
   xmlns:dc="http://purl.org/dc/elements/1.1/"
   xmlns:cc="http://creativecommons.org/ns#"
   xmlns:rdf="http://www.w3.org/1999/02/22-rdf-syntax-ns#"
   xmlns:svg="http://www.w3.org/2000/svg"
   xmlns="http://www.w3.org/2000/svg"
   id="svg4499"
   version="1.1"
   viewBox="0 0 189.60211 181.89622"
   height="181.89622mm"
   width="189.60211mm">
  <defs
     id="defs4493" />
  <metadata
     id="metadata4496">
    <rdf:RDF>
      <cc:Work
         rdf:about="">
        <dc:format>image/svg+xml</dc:format>
        <dc:type
           rdf:resource="http://purl.org/dc/dcmitype/StillImage" />
        <dc:title></dc:title>
      </cc:Work>
    </rdf:RDF>
  </metadata>
  <g
     transform="translate(-2.0396866,-1.4376043)"
     id="layer1">
    <flowRoot
       transform="scale(0.26458333)"
       style="font-style:normal;font-weight:normal;font-size:40px;line-height:1.25;font-family:sans-serif;letter-spacing:0px;word-spacing:0px;fill:#000000;fill-opacity:1;stroke:none"
       id="flowRoot5044"
       xml:space="preserve"><flowRegion
         id="flowRegion5046"><rect
           y="316.80539"
           x="42.857143"
           height="351.42856"
           width="577.14288"
           id="rect5048" /></flowRegion><flowPara
         id="flowPara5050"></flowPara></flowRoot>    <g
       id="flowRoot5052"
       style="font-style:normal;font-weight:normal;font-size:40px;line-height:1.25;font-family:sans-serif;letter-spacing:0px;word-spacing:0px;fill:#000000;fill-opacity:1;stroke:none"
       transform="matrix(0.45761324,-0.1269326,0.1269326,0.45761324,-87.805251,-72.04519)"
       aria-label="no articles yet...
click refresh!">
      <path
         id="path5066"
         style="font-style:normal;font-variant:normal;font-weight:normal;font-stretch:normal;font-size:42.66666794px;font-family:'Segoe Script';-inkscape-font-specification:'Segoe Script'"
         d="m 133.61849,359.47453 q 0,0.39583 -0.14583,0.8125 -0.125,0.39583 -0.33334,0.8125 -0.1875,0.39583 -0.4375,0.79167 -0.25,0.375 -0.47916,0.72916 -0.60417,0.9375 -1.41667,1.91667 -0.8125,0.95833 -1.75,1.875 -0.91667,0.91667 -1.89583,1.72917 -0.97917,0.8125 -1.91667,1.4375 -0.75,0.5 -1.4375,0.9375 -0.66667,0.4375 -1.35417,0.75 -0.6875,0.3125 -1.4375,0.5 -0.75,0.1875 -1.64583,0.1875 -1.72917,0 -2.8125,-0.875 -0.54167,-0.4375 -0.95833,-1.125 -0.39584,-0.70833 -0.70834,-1.5625 -0.29166,-0.85417 -0.52083,-1.8125 -0.20833,-0.95834 -0.35417,-1.89584 -0.1875,-1.16666 -0.35416,-2.08333 -0.16667,-0.9375 -0.39584,-1.5625 -0.20833,-0.64583 -0.52083,-0.97917 -0.3125,-0.35416 -0.8125,-0.35416 -0.39583,0 -0.75,0.0833 -0.35417,0.0833 -0.75,0.33333 -0.375,0.25 -0.83333,0.70834 -0.45834,0.45833 -1.08334,1.20833 -0.60416,0.75 -1.39583,1.83333 -0.79167,1.08334 -1.85417,2.58334 -0.52083,0.72916 -1.22916,1.60416 -0.70834,0.87501 -1.45834,1.66667 -0.72916,0.79167 -1.4375,1.39584 -0.70833,0.60416 -1.249997,0.77083 -1.833333,-0.39583 -1.833333,-4.5625 0,-1.10417 0.25,-3.35417 0.125,-1.02083 0.291666,-2.125 0.166667,-1.125 0.416667,-2.22917 0.25,-1.125 0.5625,-2.16666 0.333333,-1.0625 0.770837,-1.95834 0.20833,-0.41666 0.4375,-0.64583 0.22916,-0.25 0.45833,-0.35417 0.25,-0.125 0.5,-0.14583 0.27083,-0.0417 0.54167,-0.0417 0.33333,0 0.58333,0.45834 0.27083,0.45833 0.27083,1.27083 0,0.5 -0.0833,0.9375 -0.0833,0.4375 -0.22917,0.89583 -0.14583,0.45834 -0.3125,1 -0.16666,0.52084 -0.33333,1.20834 -0.125,0.5625 -0.29167,1.25 -0.14583,0.6875 -0.29166,1.39583 -0.125,0.70833 -0.22917,1.39583 -0.0833,0.66667 -0.0833,1.20834 0,0.375 0.125,0.77083 0.58333,-0.0625 1.91666,-1.75 0.6875,-0.85417 1.5,-1.875 0.83334,-1.02083 1.79167,-2.25 0.70833,-0.91667 1.39583,-1.70833 0.70834,-0.79167 1.45834,-1.375 0.75,-0.60417 1.58333,-0.9375 0.85417,-0.35417 1.875,-0.35417 1.08333,0 1.79167,0.47917 0.72916,0.45833 1.16666,1.29166 0.4375,0.8125 0.66667,1.95834 0.25,1.14583 0.39583,2.52083 0.125,1.16667 0.22917,2.3125 0.125,1.14583 0.45833,2.0625 0.33334,0.89583 0.95834,1.45833 0.625,0.56251 1.79166,0.56251 0.89584,0 1.875,-0.41667 0.97917,-0.41667 2.0625,-1.14584 1.08334,-0.75 2.22917,-1.75 1.16667,-1 2.39583,-2.1875 0.47917,-0.45833 1.04167,-1.14583 0.58333,-0.70833 1.125,-1.35417 0.5625,-0.64583 1.04167,-1.10416 0.47916,-0.45834 0.77083,-0.45834 0.125,0 0.39583,0.125 0.29167,0.125 0.29167,0.41667 z" />
      <path
         id="path5068"
         style="font-style:normal;font-variant:normal;font-weight:normal;font-stretch:normal;font-size:42.66666794px;font-family:'Segoe Script';-inkscape-font-specification:'Segoe Script'"
         d="m 147.61849,360.4537 q 0,0.66666 -0.0625,1.27083 -0.0625,0.60417 -0.1875,1.16667 -0.125,0.5625 -0.33333,1.14583 -0.20833,0.5625 -0.5,1.16667 -0.29167,0.64583 -1.0625,1.54166 -0.77083,0.89584 -1.85417,1.85417 -1.0625,0.95834 -2.35416,1.89584 -1.27084,0.9375 -2.58334,1.6875 -1.3125,0.75 -2.58333,1.20833 -1.25,0.45833 -2.27083,0.45833 -1.39584,0 -2.4375,-0.45833 -1.04167,-0.47917 -1.72917,-1.22917 -0.6875,-0.77083 -1.04167,-1.75 -0.33333,-0.97916 -0.33333,-1.97916 0,-0.66667 0.16667,-1.52084 0.16666,-0.85417 0.4375,-1.77083 0.27083,-0.91667 0.64583,-1.875 0.375,-0.95834 0.79167,-1.83334 0.41666,-0.875 0.85416,-1.625 0.4375,-0.75 0.85417,-1.27083 0.72917,-0.91667 1.75,-1.79167 1.04167,-0.875 2.27083,-1.54166 1.22917,-0.6875 2.625,-1.10417 1.41667,-0.41667 2.91667,-0.41667 1.125,0 2.20833,0.5625 1.08334,0.54167 1.91667,1.47917 0.85417,0.9375 1.375,2.16667 0.52083,1.22916 0.52083,2.5625 z m -3.25,0.60416 q 0,-2.0625 -1.1875,-3.22916 -1.16666,-1.16667 -3.375,-1.16667 -0.75,0 -1.52083,0.39583 -0.77083,0.39584 -1.47917,0.97917 -0.70833,0.58333 -1.3125,1.25 -0.58333,0.64583 -0.97916,1.16667 -0.39584,0.54166 -0.875,1.47916 -0.47917,0.91667 -0.91667,1.97917 -0.41667,1.04167 -0.70833,2.10417 -0.27084,1.04166 -0.27084,1.83333 0,0.47917 0.1875,0.97917 0.1875,0.47917 0.52084,0.875 0.35416,0.375 0.83333,0.625 0.47917,0.25 1.0625,0.25 0.625,0 1.60417,-0.375 1,-0.375 2.10416,-1.02083 1.125,-0.66667 2.25,-1.56251 1.125,-0.91666 2.02084,-1.97916 0.91666,-1.0625 1.47916,-2.22917 0.5625,-1.16667 0.5625,-2.35417 z" />
      <path
         id="path5070"
         style="font-style:normal;font-variant:normal;font-weight:normal;font-stretch:normal;font-size:42.66666794px;font-family:'Segoe Script';-inkscape-font-specification:'Segoe Script'"
         d="m 180.931,358.62036 q 0,-1.5625 -0.47917,-2.25 -0.45833,-0.6875 -1.0625,-0.6875 -0.52083,0 -1.0625,0.20834 -0.52083,0.1875 -1,0.5 -0.47917,0.3125 -0.875,0.6875 -0.39584,0.375 -0.64584,0.72916 -0.5,0.66667 -1.0625,1.52084 -0.54166,0.85416 -1.10416,1.79166 -0.54167,0.9375 -1.04167,1.91667 -0.5,0.97917 -0.89583,1.91667 -0.375,0.91666 -0.60417,1.77083 -0.22917,0.83333 -0.22917,1.5 0,0.97917 0.375,1.58334 0.375,0.58333 1.41667,0.58333 0.35417,0 1.04167,-0.4375 0.6875,-0.45833 1.45833,-1.14583 0.79167,-0.6875 1.54167,-1.47917 0.75,-0.8125 1.22917,-1.54167 0.52083,-0.77083 1.04166,-1.6875 0.54167,-0.91667 0.97917,-1.875 0.4375,-0.95833 0.70833,-1.875 0.27084,-0.9375 0.27084,-1.72917 z m 11.64583,9.29167 q 0,0.33334 -0.14583,0.77084 -0.125,0.41666 -0.41667,0.85416 -0.375,0.64584 -1,1.33334 -0.60417,0.66666 -1.375,1.22916 -0.75,0.54167 -1.64583,0.89584 -0.89584,0.35416 -1.85417,0.35416 -1.25,0 -2.16667,-0.5625 -0.89583,-0.5625 -1.5625,-1.52083 -0.64583,-0.97917 -1.08333,-2.27083 -0.41667,-1.29167 -0.6875,-2.72917 -0.91667,1.33333 -2.1875,2.64583 -1.25,1.3125 -2.60417,2.375 -1.33333,1.04167 -2.64583,1.70834 -1.29167,0.64583 -2.29167,0.64583 -0.66667,0 -1.29167,-0.33333 -0.60416,-0.33334 -1.08333,-0.89584 -0.45833,-0.5625 -0.72917,-1.29166 -0.27083,-0.72917 -0.27083,-1.54167 0,-0.8125 0.125,-1.70834 0.14583,-0.89583 0.45833,-1.91666 0.33334,-1.04167 0.83334,-2.25 0.52083,-1.20834 1.27083,-2.64584 0.83333,-1.625 1.97917,-3.0625 1.14583,-1.45833 2.33333,-2.54166 1.1875,-1.10417 2.25,-1.72917 1.08334,-0.64583 1.75,-0.64583 0.1875,0 0.41667,0.0833 0.25,0.0833 0.5,0.1875 0.27083,0.0833 0.5,0.16667 0.25,0.0625 0.41667,0.0625 0.16666,0 0.33333,-0.0625 0.16667,-0.0833 0.33333,-0.16667 0.16667,-0.10417 0.33334,-0.1875 0.16666,-0.0833 0.33333,-0.0833 0.25,0 0.54167,0.16666 0.29166,0.16667 0.5625,0.4375 0.27083,0.25 0.47916,0.58334 0.20834,0.33333 0.29167,0.64583 0.0833,0.375 0.20833,0.5625 0.14584,0.16667 0.27084,0.3125 0.14583,0.14583 0.22916,0.35417 0.10417,0.1875 0.10417,0.60416 0,0.20834 -0.14583,0.875 -0.14584,0.66667 -0.33334,1.5625 -0.16666,0.875 -0.3125,1.83334 -0.14583,0.95833 -0.14583,1.75 0,2.22916 0.25,3.64583 0.25,1.41667 0.6875,2.25 0.4375,0.8125 1.02083,1.125 0.60417,0.3125 1.27084,0.3125 1.58333,0 2.58333,-0.54166 1.02083,-0.54167 1.8125,-1.60417 0.22917,-0.29167 0.39583,-0.52084 0.16667,-0.22916 0.33334,-0.22916 0.29166,0 0.52083,0.22916 0.25,0.22917 0.25,0.47917 z" />
      <path
         id="path5072"
         style="font-style:normal;font-variant:normal;font-weight:normal;font-stretch:normal;font-size:42.66666794px;font-family:'Segoe Script';-inkscape-font-specification:'Segoe Script'"
         d="m 241.63933,355.12036 q 0,1.52084 -1.10417,2.14584 -0.95833,0.47916 -3.79167,1.04166 -1.4375,0.27084 -2.72916,0.5 -1.29167,0.20834 -2.47917,0.375 -1.60417,0.22917 -2.6875,0.41667 -1.0625,0.1875 -1.60417,0.29167 -0.54166,0.10416 -1.29166,0.33333 -0.72917,0.22917 -1.66667,0.58333 -0.4375,1.89584 -0.91667,3.85417 -0.45833,1.9375 -0.79166,3.64584 -0.0625,0.29166 -0.14584,0.625 -0.0625,0.3125 -0.14583,0.66666 -0.14583,0.72917 -0.22917,1.29167 -0.0833,0.54167 -0.0833,1.04167 0,0.70833 0.14583,1.14583 0.0833,0.22917 0.1875,0.60417 0.10417,0.35416 0.27084,0.83333 0.33333,0.97917 0.33333,1.39583 0,0.66667 -0.54167,1.4375 -0.52083,0.77084 -1.16666,0.77084 -0.6875,0 -1.41667,-1.04167 -0.35417,-0.52083 -0.625,-1.04167 -0.27083,-0.5 -0.47917,-1.02083 -0.33333,-1 -0.33333,-1.95833 0,-0.20834 0.0208,-0.41667 0.0208,-0.22917 0.0625,-0.47917 0.0833,-0.45833 0.25,-1.14583 0.0833,-0.33333 0.125,-0.5625 0.0625,-0.25 0.10417,-0.39583 0.5,-2.31251 0.83333,-3.87501 0.35417,-1.5625 0.52084,-2.4375 0.4375,-1.95833 0.4375,-2.20833 0,-0.33333 -0.25,-0.5 -0.22917,-0.1875 -0.5625,-0.1875 -0.25,0 -0.6875,0.0833 -0.41667,0.0625 -0.875,0.14584 -0.45834,0.0833 -0.875,0.16666 -0.41667,0.0625 -0.64584,0.0625 -0.5625,0 -0.77083,-0.35416 -0.20833,-0.375 -0.0625,-0.85417 0.14583,-0.5 0.625,-1 0.5,-0.5 1.3125,-0.77083 0.45833,-0.14584 1.20833,-0.33334 0.77084,-0.1875 1.375,-0.47916 0.10417,-0.0625 0.22917,-0.125 0.125,-0.0625 0.25,-0.20834 0.125,-0.14583 0.27083,-0.375 0.14584,-0.25 0.29167,-0.625 0.29167,-0.79166 0.54167,-1.60416 0.27083,-0.8125 0.47916,-1.6875 0.22917,-0.875 0.375,-1.54167 0.16667,-0.6875 0.27084,-1.16667 0.0417,-0.125 0.1875,-0.91666 0.10416,-0.41667 0.16666,-0.77084 0.0833,-0.375 0.125,-0.66666 0.14584,-0.79167 0.3125,-1.45834 0.1875,-0.66666 0.41667,-1.20833 0.45833,-1.08333 1.47917,-1.08333 1.54166,0 1.54166,1.70833 0,1.0625 -0.45833,2.4375 -1.97917,6.3125 -1.97917,7.70833 0,0.77084 0.77084,0.77084 1.375,0 3.02083,-0.14584 1.66667,-0.16666 3.6875,-0.39583 0.79167,-0.10417 1.60417,-0.1875 0.83333,-0.0833 1.6875,-0.1875 0.83333,-0.10417 1.58333,-0.20833 0.75,-0.10417 1.4375,-0.22917 0.70833,-0.125 1.39583,-0.27083 0.6875,-0.14584 1.41667,-0.33334 0.0417,0.16667 0.0417,0.375 z m -27.1875,3.10417 q 0,0.3125 -0.29167,0.54167 -0.27083,0.20833 -0.72917,0.39583 -0.45833,0.1875 -1.04166,0.35417 -0.5625,0.14583 -1.125,0.33333 -1.35417,0.41667 -2.79167,1.20833 -1.41667,0.77084 -2.95833,2.33334 -1.20834,1.22916 -2.08334,2.58333 -0.85416,1.33333 -1.47916,2.83334 -0.625,1.5 -1.0625,3.1875 -0.4375,1.66666 -0.75,3.5625 -0.22917,0.25 -0.39584,0.4375 -0.16666,0.1875 -0.35416,0.3125 -0.1875,0.125 -0.4375,0.1875 -0.22917,0.0833 -0.60417,0.0833 -0.54167,0 -0.85417,-0.47917 -0.29166,-0.45833 -0.4375,-1.10416 -0.14583,-0.625 -0.1875,-1.27084 -0.0208,-0.64583 -0.0208,-1.02083 0,-0.39583 0.0208,-1 0.0208,-0.625 0.0417,-1.35417 0.0417,-0.72916 0.0833,-1.5 0.0417,-0.79167 0.0625,-1.52083 0.0417,-0.72917 0.0625,-1.33334 0.0208,-0.625 0.0208,-1.02083 0,-0.95833 -0.0417,-1.58333 -0.0208,-0.625 -0.0625,-1.0625 -0.0417,-0.4375 -0.10417,-0.77084 -0.0625,-0.35416 -0.10416,-0.75 -0.0417,-0.41666 -0.0833,-0.95833 -0.0208,-0.5625 -0.0208,-1.4375 0,-0.4375 0.1875,-0.83333 0.1875,-0.41667 0.47917,-0.70834 0.3125,-0.3125 0.6875,-0.47916 0.39583,-0.1875 0.77083,-0.1875 0.4375,0 0.8125,0.1875 0.375,0.1875 0.64583,0.47916 0.27084,0.29167 0.41667,0.6875 0.14583,0.375 0.14583,0.77084 0,0.79166 -0.10416,1.89583 -0.10417,1.08333 -0.22917,2.22917 -0.10417,1.125 -0.1875,2.1875 -0.0833,1.04166 -0.0625,1.75 0.89583,-1.70834 2.0625,-3.45834 1.1875,-1.75 2.625,-3.16666 1.45833,-1.4375 3.14583,-2.33334 1.6875,-0.91666 3.60417,-0.91666 0.375,0 0.85417,0.0833 0.47916,0.0833 0.89583,0.29167 0.41667,0.20833 0.6875,0.54166 0.29167,0.3125 0.29167,0.79167 z" />
      <path
         id="path5074"
         style="font-style:normal;font-variant:normal;font-weight:normal;font-stretch:normal;font-size:42.66666794px;font-family:'Segoe Script';-inkscape-font-specification:'Segoe Script'"
         d="m 244.78516,343.87036 q 0,1.35417 -0.70834,2.3125 -0.6875,0.95834 -2.02083,0.95834 -0.83333,0 -1.85417,-0.25 -1,-0.25 -1,-0.8125 0,-1.02084 0.625,-1.9375 0.64584,-0.9375 1.54167,-1.52084 0.70833,-0.41666 0.9375,-0.41666 1.1875,0 1.83333,0.33333 0.64584,0.3125 0.64584,1.33333 z m 13.64583,16.9375 q 0.0208,0.4375 -0.39583,1.1875 -0.39584,0.75 -1.10417,1.70834 -0.6875,0.9375 -1.625,2.02083 -0.91667,1.08333 -1.9375,2.16667 -1.16667,1.25 -2.47917,2.41667 -1.29166,1.14583 -2.77083,2.22916 -2.91667,2.16667 -5.20833,2.16667 -2.52084,0 -3.91667,-1.6875 -1.39583,-1.70833 -1.89583,-4.125 -0.5,-2.39584 -0.5,-4.9375 0,-1.0625 0.25,-3.3125 0.125,-1.125 0.25,-1.9375 0.125,-0.8125 0.27083,-1.3125 0.29167,-0.97917 1.22917,-1.70834 0.95833,-0.77083 2,-0.77083 0.5625,0 0.5625,1.0625 0,0.70833 -0.14584,1.60417 -0.125,0.89583 -0.27083,1.77083 -0.27083,1.64583 -0.39583,2.95833 -0.125,1.29167 -0.125,2.25 0,2.10417 0.58333,4.25001 0.58333,2.1875 2.10417,2.1875 1.54166,0 3.58333,-1.125 1.02083,-0.58334 2.04167,-1.29167 1.02083,-0.70834 2.04166,-1.58334 1.04167,-0.875 2,-1.75 0.95834,-0.89583 1.875,-1.83333 0.91667,-0.9375 1.64584,-1.75 0.72916,-0.8125 1.27083,-1.5 0.0208,-0.0417 0.0625,-0.125 0.0625,-0.10417 0.125,-0.1875 0.0625,-0.10417 0.125,-0.16667 0.0625,-0.0625 0.125,-0.0417 0.29167,0 0.4375,0.45833 0.1875,0.4375 0.1875,0.70833 z" />
      <path
         id="path5076"
         style="font-style:normal;font-variant:normal;font-weight:normal;font-stretch:normal;font-size:42.66666794px;font-family:'Segoe Script';-inkscape-font-specification:'Segoe Script'"
         d="m 281.51433,355.55786 q 0,0.3125 -0.1875,0.89584 -0.1875,0.58333 -0.52083,1.29166 -0.3125,0.70834 -0.75,1.47917 -0.41667,0.75 -0.89584,1.39583 -1.45833,1.97917 -2.875,3.58334 -1.39583,1.58333 -2.8125,2.89583 -1.39583,1.3125 -2.85416,2.375 -1.4375,1.0625 -2.95834,1.9375 -1.0625,0.60417 -1.9375,0.97917 -0.875,0.375 -1.72916,0.58333 -0.85417,0.1875 -1.77084,0.25 -0.89583,0.0625 -2,0.0625 -1.10417,0 -2.04167,-0.35416 -0.91666,-0.35417 -1.58333,-1.08334 -0.66667,-0.75 -1.04167,-1.875 -0.375,-1.14583 -0.375,-2.70833 0,-0.875 0.25,-2 0.25,-1.14584 0.6875,-2.375 0.4375,-1.25 1.02084,-2.52084 0.60416,-1.27083 1.29166,-2.41666 0.6875,-1.16667 1.4375,-2.14584 0.77084,-0.97916 1.54167,-1.625 0.41667,-0.35416 1.04167,-0.6875 0.625,-0.33333 1.29167,-0.58333 0.66666,-0.27083 1.3125,-0.41667 0.66666,-0.16666 1.14583,-0.16666 0.64583,0 1.35417,0.3125 0.70833,0.3125 1.29166,0.79166 0.60417,0.45834 0.97917,1.02084 0.375,0.54166 0.375,1.04166 0,0.375 -0.125,0.77084 -0.125,0.39583 -0.33333,0.72916 -0.20834,0.33334 -0.45834,0.5625 -0.25,0.20834 -0.52083,0.20834 -0.47917,0 -0.77083,-0.39584 -0.29167,-0.41666 -0.58334,-0.89583 -0.27083,-0.5 -0.625,-0.89583 -0.35416,-0.41667 -0.97916,-0.41667 -0.9375,0 -1.85417,0.66667 -0.89584,0.66666 -1.72917,1.75 -0.83333,1.0625 -1.54167,2.39583 -0.70833,1.3125 -1.22916,2.64583 -0.52084,1.3125 -0.8125,2.5 -0.29167,1.16667 -0.29167,1.9375 0,0.85417 0.3125,1.45834 0.33333,0.58333 0.83333,0.95833 0.52084,0.375 1.14584,0.54167 0.64583,0.16667 1.27083,0.16667 0.70833,0 1.60417,-0.20834 0.91667,-0.20833 1.83333,-0.54166 0.91667,-0.33334 1.77084,-0.75 0.85416,-0.41667 1.47916,-0.85417 1.64584,-1.125 3.29167,-2.625 1.64583,-1.52084 3.125,-3.1875 1.5,-1.66667 2.75,-3.375 1.27083,-1.70834 2.16667,-3.25 0.16666,-0.27084 0.35416,-0.375 0.1875,-0.125 0.375,-0.125 0.33334,0 0.58334,0.22916 0.27083,0.22917 0.27083,0.4375 z" />
      <path
         id="path5078"
         style="font-style:normal;font-variant:normal;font-weight:normal;font-stretch:normal;font-size:42.66666794px;font-family:'Segoe Script';-inkscape-font-specification:'Segoe Script'"
         d="m 296.26433,365.5787 q 0,0.1875 -0.29166,0.5625 -0.27084,0.375 -0.72917,0.83333 -0.45833,0.45833 -1.04167,0.95833 -0.58333,0.50001 -1.16666,0.93751 -3.16667,2.41666 -5.58334,3.64583 -2.39583,1.20833 -4.29166,1.20833 -0.83334,0 -1.72917,-0.375 -0.875,-0.39583 -1.60417,-1.3125 -0.72916,-0.9375 -1.20833,-2.45833 -0.45833,-1.54167 -0.45833,-3.85417 0,-0.9375 0.0833,-2.10417 0.0833,-1.16666 0.20833,-2.4375 0.14584,-1.27083 0.3125,-2.58333 0.16667,-1.33333 0.35417,-2.60417 0.1875,-1.27083 0.375,-2.39583 0.1875,-1.14583 0.35417,-2.0625 0.14583,-0.77083 0.3125,-1.60417 0.1875,-0.83333 0.375,-1.64583 0.1875,-0.83333 0.35416,-1.5625 0.1875,-0.75 0.35417,-1.33333 0.16667,-0.54167 0.45833,-1.16667 0.29167,-0.64583 0.66667,-1.1875 0.375,-0.5625 0.79167,-0.91667 0.4375,-0.375 0.875,-0.375 0.47916,0 0.77083,0.125 0.29167,0.125 0.45833,0.375 0.16667,0.22917 0.20834,0.54167 0.0625,0.3125 0.0625,0.6875 0,0.85417 -0.33334,2.27083 -0.33333,1.39584 -0.8125,2.97917 -0.45833,1.58333 -0.9375,3.1875 -0.47916,1.60417 -0.79166,2.85417 -0.10417,0.47916 -0.22917,1.20833 -0.125,0.72917 -0.22917,1.625 -0.10416,0.875 -0.20833,1.875 -0.0833,0.97917 -0.16667,1.95833 -0.0625,0.97917 -0.10416,1.91667 -0.0417,0.9375 -0.0417,1.72917 0,1.66666 0.25,2.70833 0.27083,1.02084 0.6875,1.60417 0.41667,0.58333 0.9375,0.79167 0.52083,0.1875 1.04167,0.1875 0.85416,0 1.77083,-0.27084 0.91667,-0.27083 1.95833,-0.83333 1.0625,-0.5625 2.29167,-1.39584 1.22917,-0.85416 2.70833,-2 0.39584,-0.3125 0.70834,-0.60416 0.33333,-0.29167 0.58333,-0.52084 0.25,-0.25 0.45833,-0.375 0.20834,-0.14583 0.39584,-0.14583 0.29166,0 0.54166,0.29167 0.25,0.29166 0.25,1.0625 z" />
      <path
         id="path5080"
         style="font-style:normal;font-variant:normal;font-weight:normal;font-stretch:normal;font-size:42.66666794px;font-family:'Segoe Script';-inkscape-font-specification:'Segoe Script'"
         d="m 319.76433,359.99536 q 0,0.3125 -0.45833,1.10417 -1.08334,1.5625 -2.4375,3.125 -1.33334,1.5625 -2.85417,2.97917 -1.5,1.39583 -3.14583,2.625 -1.625,1.20833 -3.29167,2.10417 -1.66667,0.875 -3.33333,1.35416 -1.64584,0.47917 -3.18751,0.45834 -3.33333,0 -5.1875,-1.9375 -1.83333,-1.9375 -1.83333,-5.85417 0,-3.27084 1,-6.35417 1.02083,-3.08333 3.45833,-5.9375 0.45834,-0.5 1.02084,-0.95833 0.58333,-0.45834 1.20833,-0.8125 0.64583,-0.35417 1.3125,-0.5625 0.6875,-0.20834 1.375,-0.25 0.16667,0 0.45834,0.0417 0.29166,0.0417 0.625,0.14584 0.33333,0.10416 0.64583,0.27083 0.3125,0.14583 0.5,0.375 0.58333,0.66667 0.91667,1.375 0.35416,0.70833 0.39583,1.5625 0.0417,0.95833 -0.22917,1.89583 -0.25,0.91667 -0.875,1.89584 -0.60416,0.95833 -1.60416,2 -1,1.02083 -2.41667,2.20833 -0.89584,0.75 -2,1.66667 -1.08334,0.89583 -2.625,1.89583 0,2.02084 1.20833,3.08334 1.22917,1.04166 3.35417,1.04166 1.1875,0 2.39583,-0.3125 1.20834,-0.3125 2.375,-0.8125 1.16667,-0.52083 2.25,-1.16666 1.10417,-0.66667 2.0625,-1.35417 1.77084,-1.29167 3.20834,-2.5625 1.4375,-1.29167 2.85416,-2.70834 l 1.125,-1.125 q 1.02084,-0.89583 1.47917,-0.89583 0.25,0 0.25,0.39583 z m -15.91667,-4.14583 q -0.0208,-0.3125 -0.10416,-0.60417 -0.0625,-0.3125 -0.20834,-0.54166 -0.14583,-0.22917 -0.33333,-0.35417 -0.1875,-0.14583 -0.4375,-0.14583 -1.10417,0.0625 -2.20834,1.35416 -1.10416,1.27084 -2.08333,3.375 -0.22917,0.45834 -0.41667,1.04167 -0.16666,0.5625 -0.33333,1.16667 -0.14583,0.58333 -0.27083,1.16666 -0.10417,0.58334 -0.1875,1.04167 1.08333,-0.8125 2,-1.5 0.91666,-0.6875 1.70833,-1.41667 0.5,-0.45833 1.02084,-0.97916 0.52083,-0.54167 0.9375,-1.125 0.4375,-0.58334 0.6875,-1.20834 0.25,-0.625 0.22916,-1.27083 z" />
      <path
         id="path5082"
         style="font-style:normal;font-variant:normal;font-weight:normal;font-stretch:normal;font-size:42.66666794px;font-family:'Segoe Script';-inkscape-font-specification:'Segoe Script'"
         d="m 328.59766,369.84953 q 0,1.0625 -0.375,2.08334 -0.375,1 -1.02083,1.89583 -0.625,0.89583 -1.45833,1.64583 -0.8125,0.77084 -1.70834,1.3125 -0.875,0.5625 -1.77083,0.85417 -0.89584,0.3125 -1.64584,0.3125 -1.04166,0 -1.375,-0.45833 -0.33333,-0.45834 -0.33333,-1.29167 0,-0.77083 0.29167,-1.1875 0.29166,-0.39583 0.83333,-0.6875 0.0625,-0.0208 0.22917,-0.0417 0.16666,-0.0417 0.35416,-0.0417 0.20834,-0.0208 0.39584,-0.0208 0.20833,-0.0208 0.33333,-0.0208 0.14583,0 0.41667,-0.0625 0.27083,-0.0625 0.58333,-0.16667 0.3125,-0.125 0.64583,-0.29166 0.33334,-0.1875 0.625,-0.41667 0.83334,-0.66667 1.16667,-1.47917 0.35417,-0.83333 0.35417,-1.47916 0,-0.8125 -0.52083,-1.52084 -0.52084,-0.70833 -1.31251,-1.375 -0.79166,-0.6875 -1.70833,-1.35417 -0.91667,-0.6875 -1.70833,-1.4375 -0.79167,-0.77083 -1.3125,-1.625 -0.52084,-0.85416 -0.52084,-1.89583 0,-0.52083 0.125,-1.10417 0.14584,-0.58333 0.35417,-1.14583 0.22917,-0.5625 0.5,-1.08333 0.29167,-0.54167 0.60417,-0.97917 0.5,-0.70833 1.08333,-1.39583 0.60417,-0.6875 1.20833,-1.20834 0.60417,-0.54166 1.1875,-0.85416 0.58334,-0.33334 1.08334,-0.33334 1.41667,0 1.41667,1.66667 0,0.58333 -0.47917,1.35417 -0.45833,0.77083 -1.10417,1.41666 -1,0.95834 -1.75,1.64584 -0.75,0.66666 -1.39583,1.375 0.47916,0.70833 1.04166,1.29166 0.5625,0.58334 1.16667,1.125 0.625,0.54167 1.25,1.0625 0.64584,0.52084 1.27084,1.08334 0.58333,0.54166 1.10416,1.10416 0.54167,0.54167 0.95834,1.14584 0.41666,0.58333 0.66666,1.22917 0.25,0.64583 0.25,1.35416 z" />
      <path
         id="path5084"
         style="font-style:normal;font-variant:normal;font-weight:normal;font-stretch:normal;font-size:42.66666794px;font-family:'Segoe Script';-inkscape-font-specification:'Segoe Script'"
         d="m 372.6185,355.5162 q 0,0.35416 -0.1875,0.9375 -0.16667,0.58333 -0.39583,1.29166 -0.20834,0.6875 -0.39584,1.45834 -0.16666,0.77083 -0.16666,1.52083 0,4.08333 -0.22917,7.125 -0.20833,3.04167 -0.6875,5.375 -0.45833,2.33334 -1.16667,4.10417 -0.70833,1.77083 -1.6875,3.3125 -0.64583,1 -1.58333,1.89583 -0.91667,0.91667 -2.04167,1.58334 -1.125,0.6875 -2.41666,1.08333 -1.27084,0.39583 -2.625,0.39583 -1.0625,0 -1.91667,-0.125 -0.85417,-0.125 -1.60417,-0.39583 -0.75,-0.27083 -1.45833,-0.66667 -0.6875,-0.375 -1.41667,-0.91666 -0.79166,-0.58334 -1.22916,-1.14584 -0.4375,-0.5625 -0.4375,-1.41666 0,-0.72917 0.4375,-1.27084 0.45833,-0.52083 1.1875,-0.52083 0.27083,0 0.5,0.16667 0.25,0.1875 0.52083,0.45833 0.27083,0.27083 0.58333,0.58333 0.33334,0.33334 0.79167,0.625 0.41667,0.27084 0.8125,0.52084 0.39583,0.27083 0.9375,0.47916 0.54167,0.20834 1.33333,0.33334 0.79167,0.125 1.97917,0.125 0.91667,0 1.91667,-0.47917 1.02083,-0.45833 1.95833,-1.375 0.9375,-0.91667 1.70833,-2.29167 0.79167,-1.35416 1.25,-3.14583 0.25,-0.9375 0.45834,-2.16667 0.22916,-1.25 0.39583,-2.58333 0.16667,-1.33333 0.25,-2.625 0.10417,-1.29167 0.10417,-2.3125 -0.52084,0.41666 -1.22917,1.08333 -0.6875,0.66667 -1.54167,1.4375 -0.85416,0.77084 -1.85416,1.5625 -1,0.79167 -2.125,1.4375 -1.125,0.625 -2.39584,1.04167 -1.25,0.39583 -2.60416,0.39583 -0.375,0 -0.97917,-0.0625 -0.58333,-0.0833 -1.1875,-0.22916 -0.58333,-0.14584 -1.08333,-0.33334 -0.47917,-0.20833 -0.625,-0.4375 -0.375,-0.54166 -0.64584,-1.25 -0.27083,-0.72916 -0.45833,-1.45833 -0.16667,-0.72917 -0.27083,-1.39584 -0.0833,-0.66666 -0.0833,-1.10416 0,-0.41667 0.10417,-1.41667 0.125,-1.02083 0.33333,-2.29167 0.20834,-1.29166 0.52084,-2.6875 0.3125,-1.39583 0.70833,-2.60416 0.0833,-0.27084 0.20833,-0.47917 0.125,-0.22917 0.25,-0.41667 0.14584,-0.20833 0.3125,-0.41666 0.16667,-0.20834 0.33334,-0.47917 0.33333,-0.47917 0.75,-0.70833 0.41666,-0.22917 0.83333,-0.22917 0.45833,0 0.79167,0.25 0.35416,0.22917 0.47916,0.6875 0.0417,0.10417 0.0417,0.27083 0.0208,0.16667 0.0208,0.39584 0,0.29166 -0.0417,0.64583 -0.0208,0.33333 -0.0833,0.6875 -0.0625,0.33333 -0.16666,0.64583 -0.0833,0.29167 -0.22917,0.5 -0.47917,0.70834 -0.77083,1.20834 -0.27084,0.47916 -0.45834,1.0625 -0.85416,2.66666 -0.85416,4.52083 0,1.875 0.79166,2.875 0.79167,1 2.27084,1 1.25,0 2.1875,-0.27083 0.9375,-0.29167 1.72916,-0.77083 0.79167,-0.50001 1.52084,-1.12501 0.75,-0.64583 1.60416,-1.375 0.3125,-0.27083 0.70834,-0.70833 0.41666,-0.45833 0.8125,-0.95833 0.39583,-0.52084 0.75,-1.02084 0.35416,-0.52083 0.60416,-0.89583 0.70834,-1.14583 0.95834,-2.1875 0.25,-1.04167 0.33333,-2 0.0833,-0.95833 0.16667,-1.83333 0.0833,-0.89584 0.5,-1.70834 0.22916,-0.4375 0.75,-0.8125 0.52083,-0.375 1.41666,-0.41666 0.29167,0 0.54167,0.25 0.27083,0.22916 0.45833,0.60416 0.1875,0.35417 0.29167,0.79167 0.125,0.41667 0.125,0.79167 z" />
      <path
         id="path5086"
         style="font-style:normal;font-variant:normal;font-weight:normal;font-stretch:normal;font-size:42.66666794px;font-family:'Segoe Script';-inkscape-font-specification:'Segoe Script'"
         d="m 404.01434,359.99536 q 0,0.3125 -0.45833,1.10417 -1.08333,1.5625 -2.4375,3.125 -1.33333,1.5625 -2.85417,2.97917 -1.5,1.39583 -3.14583,2.625 -1.625,1.20833 -3.29167,2.10417 -1.66666,0.875 -3.33333,1.35416 -1.64583,0.47917 -3.1875,0.45834 -3.33333,0 -5.1875,-1.9375 -1.83333,-1.9375 -1.83333,-5.85417 0,-3.27084 1,-6.35417 1.02083,-3.08333 3.45833,-5.9375 0.45833,-0.5 1.02083,-0.95833 0.58334,-0.45834 1.20834,-0.8125 0.64583,-0.35417 1.3125,-0.5625 0.6875,-0.20834 1.375,-0.25 0.16666,0 0.45833,0.0417 0.29167,0.0417 0.625,0.14584 0.33333,0.10416 0.64583,0.27083 0.3125,0.14583 0.5,0.375 0.58334,0.66667 0.91667,1.375 0.35417,0.70833 0.39583,1.5625 0.0417,0.95833 -0.22916,1.89583 -0.25,0.91667 -0.875,1.89584 -0.60417,0.95833 -1.60417,2 -1,1.02083 -2.41667,2.20833 -0.89583,0.75 -2,1.66667 -1.08333,0.89583 -2.625,1.89583 0,2.02084 1.20834,3.08334 1.22916,1.04166 3.35416,1.04166 1.1875,0 2.39584,-0.3125 1.20833,-0.3125 2.375,-0.8125 1.16666,-0.52083 2.25,-1.16666 1.10416,-0.66667 2.0625,-1.35417 1.77083,-1.29167 3.20833,-2.5625 1.4375,-1.29167 2.85417,-2.70834 l 1.125,-1.125 q 1.02083,-0.89583 1.47916,-0.89583 0.25,0 0.25,0.39583 z m -15.91666,-4.14583 q -0.0208,-0.3125 -0.10417,-0.60417 -0.0625,-0.3125 -0.20833,-0.54166 -0.14584,-0.22917 -0.33334,-0.35417 -0.1875,-0.14583 -0.4375,-0.14583 -1.10416,0.0625 -2.20833,1.35416 -1.10417,1.27084 -2.08333,3.375 -0.22917,0.45834 -0.41667,1.04167 -0.16667,0.5625 -0.33333,1.16667 -0.14584,0.58333 -0.27084,1.16666 -0.10416,0.58334 -0.1875,1.04167 1.08334,-0.8125 2,-1.5 0.91667,-0.6875 1.70834,-1.41667 0.5,-0.45833 1.02083,-0.97916 0.52083,-0.54167 0.9375,-1.125 0.4375,-0.58334 0.6875,-1.20834 0.25,-0.625 0.22917,-1.27083 z" />
      <path
         id="path5088"
         style="font-style:normal;font-variant:normal;font-weight:normal;font-stretch:normal;font-size:42.66666794px;font-family:'Segoe Script';-inkscape-font-specification:'Segoe Script'"
         d="m 419.55601,355.24536 q 0,0.60417 -0.25,0.9375 -0.22917,0.33334 -0.58333,0.5 -0.33334,0.16667 -0.72917,0.20834 -0.39583,0.0417 -0.70833,0.0625 -1.75,0.125 -3.58334,0.29166 -1.8125,0.14584 -3.3125,0.3125 -1.5,0.14584 -2.47916,0.29167 -0.95834,0.14583 -0.97917,0.22917 -0.14583,0.60416 -0.375,1.5 -0.22917,0.89583 -0.47917,1.9375 -0.25,1.02083 -0.5,2.125 -0.25,1.08333 -0.45833,2.08333 -0.1875,0.97917 -0.3125,1.79167 -0.125,0.79167 -0.125,1.27083 0,0.4375 0.0625,1.0625 0.0625,0.625 0.29167,1.20834 0.25,0.5625 0.70833,0.95833 0.45833,0.39583 1.25,0.39583 0.4375,0 1.0625,-0.27083 0.64583,-0.27083 1.39583,-0.75 0.75,-0.47917 1.5625,-1.14583 0.8125,-0.66667 1.60417,-1.45834 0.39583,-0.39583 0.85417,-0.75 0.47916,-0.375 1.02083,-0.375 0.77083,0 0.77083,0.72917 0,0.375 -0.14583,0.72917 -0.125,0.33333 -0.35417,0.6875 -0.20833,0.33333 -0.5,0.6875 -0.27083,0.33333 -0.58333,0.70833 -0.20833,0.27083 -0.625,0.70833 -0.39583,0.41667 -0.97917,0.91667 -0.5625,0.5 -1.27083,1.02083 -0.6875,0.5 -1.47917,0.89584 -0.77083,0.41666 -1.625,0.66666 -0.83333,0.27084 -1.6875,0.27084 -1.22916,0 -2.0625,-0.35417 -0.8125,-0.35417 -1.33333,-0.9375 -0.52083,-0.58333 -0.8125,-1.3125 -0.27083,-0.75 -0.39583,-1.5 -0.125,-0.75 -0.14584,-1.45833 0,-0.72917 0,-1.25 0,-0.64584 0.125,-1.52084 0.14584,-0.89583 0.33334,-1.89583 0.1875,-1 0.41666,-2.02084 0.25,-1.04166 0.4375,-1.97916 0.1875,-0.9375 0.3125,-1.70834 0.14584,-0.79166 0.14584,-1.25 0,-0.27083 -0.27084,-0.29166 -0.25,-0.0417 -0.6875,0.0208 -0.4375,0.0625 -1,0.125 -0.54166,0.0625 -1.125,-0.0417 -0.375,-0.0625 -0.70833,-0.1875 -0.33333,-0.125 -0.60417,-0.33333 -0.25,-0.22917 -0.41666,-0.5625 -0.14584,-0.35417 -0.14584,-0.875 0,-0.64583 0.33334,-0.89583 0.35416,-0.25 0.83333,-0.25 h 4.89583 q 0.125,-0.0625 0.3125,-0.41667 0.20834,-0.375 0.4375,-0.9375 0.25,-0.58333 0.52084,-1.29167 0.27083,-0.72916 0.54166,-1.5 0.29167,-0.79166 0.54167,-1.58333 0.27083,-0.79167 0.5,-1.47917 0.35417,-1.125 0.83333,-1.60416 0.47917,-0.47917 1.20834,-0.47917 0.47916,0 0.79166,0.1875 0.33334,0.16667 0.52084,0.4375 0.1875,0.25 0.27083,0.54167 0.0833,0.29166 0.0833,0.54166 0,0.0833 -0.14583,0.5 -0.125,0.39584 -0.33333,1 -0.20834,0.60417 -0.47917,1.35417 -0.27083,0.75 -0.5625,1.5 -0.27083,0.75 -0.52083,1.45833 -0.25,0.70834 -0.4375,1.22917 1.9375,-0.125 3.27083,-0.25 1.35417,-0.125 2.3125,-0.20833 0.95833,-0.10417 1.625,-0.16667 0.6875,-0.0625 1.29167,-0.0625 0.91666,0 1.45833,0.0833 0.5625,0.0833 0.85417,0.25 0.3125,0.14584 0.41666,0.39584 0.10417,0.22916 0.10417,0.54166 z" />
      <path
         id="path5090"
         style="font-style:normal;font-variant:normal;font-weight:normal;font-stretch:normal;font-size:42.66666794px;font-family:'Segoe Script';-inkscape-font-specification:'Segoe Script'"
         d="m 424.43099,369.97453 q 0,0.41667 -0.1875,1.375 -0.10417,0.47917 -1.3125,1.47917 -1.22917,0.97917 -1.70833,0.97917 -0.5625,0 -0.89584,-0.14584 -0.33333,-0.14583 -0.52083,-0.45833 -0.1875,-0.3125 -0.25,-0.79167 -0.0417,-0.47916 -0.0417,-1.16666 0,-1.20834 0.0833,-1.6875 0.0833,-0.9375 2.95833,-0.9375 h 0.45833 q 0.60417,0 1.22917,0.70833 0.1875,0.1875 0.1875,0.64583 z" />
      <path
         id="path5092"
         style="font-style:normal;font-variant:normal;font-weight:normal;font-stretch:normal;font-size:42.66666794px;font-family:'Segoe Script';-inkscape-font-specification:'Segoe Script'"
         d="m 435.18099,369.97453 q 0,0.41667 -0.1875,1.375 -0.10417,0.47917 -1.3125,1.47917 -1.22917,0.97917 -1.70833,0.97917 -0.5625,0 -0.89584,-0.14584 -0.33333,-0.14583 -0.52083,-0.45833 -0.1875,-0.3125 -0.25,-0.79167 -0.0417,-0.47916 -0.0417,-1.16666 0,-1.20834 0.0833,-1.6875 0.0833,-0.9375 2.95833,-0.9375 h 0.45833 q 0.60417,0 1.22917,0.70833 0.1875,0.1875 0.1875,0.64583 z" />
      <path
         id="path5094"
         style="font-style:normal;font-variant:normal;font-weight:normal;font-stretch:normal;font-size:42.66666794px;font-family:'Segoe Script';-inkscape-font-specification:'Segoe Script'"
         d="m 445.93099,369.97453 q 0,0.41667 -0.1875,1.375 -0.10417,0.47917 -1.3125,1.47917 -1.22917,0.97917 -1.70833,0.97917 -0.5625,0 -0.89584,-0.14584 -0.33333,-0.14583 -0.52083,-0.45833 -0.1875,-0.3125 -0.25,-0.79167 -0.0417,-0.47916 -0.0417,-1.16666 0,-1.20834 0.0833,-1.6875 0.0833,-0.9375 2.95833,-0.9375 h 0.45833 q 0.60417,0 1.22917,0.70833 0.1875,0.1875 0.1875,0.64583 z" />
      <path
         id="path5096"
         style="font-style:normal;font-variant:normal;font-weight:normal;font-stretch:normal;font-size:42.66666794px;font-family:'Segoe Script';-inkscape-font-specification:'Segoe Script'"
         d="m 123.59766,408.89121 q 0,0.3125 -0.1875,0.89583 -0.1875,0.58333 -0.52084,1.29167 -0.3125,0.70833 -0.75,1.47916 -0.41666,0.75 -0.89583,1.39584 -1.45833,1.97917 -2.875,3.58333 -1.39583,1.58334 -2.8125,2.89584 -1.39583,1.3125 -2.85417,2.375 -1.4375,1.0625 -2.95833,1.9375 -1.0625,0.60416 -1.9375,0.97916 -0.875,0.375 -1.72917,0.58334 -0.85416,0.1875 -1.77083,0.25 -0.89583,0.0625 -2,0.0625 -1.10417,0 -2.04167,-0.35417 -0.916664,-0.35417 -1.58333,-1.08333 -0.666667,-0.75 -1.041667,-1.875 -0.375,-1.14584 -0.375,-2.70834 0,-0.875 0.25,-2 0.25,-1.14583 0.6875,-2.375 0.4375,-1.25 1.020833,-2.52083 0.604167,-1.27084 1.291664,-2.41667 0.6875,-1.16667 1.4375,-2.14583 0.77084,-0.97917 1.54167,-1.625 0.41667,-0.35417 1.04167,-0.6875 0.625,-0.33334 1.29166,-0.58334 0.66667,-0.27083 1.3125,-0.41666 0.66667,-0.16667 1.14584,-0.16667 0.64583,0 1.35416,0.3125 0.70834,0.3125 1.29167,0.79167 0.60417,0.45833 0.97917,1.02083 0.375,0.54167 0.375,1.04167 0,0.375 -0.125,0.77083 -0.125,0.39583 -0.33334,0.72917 -0.20833,0.33333 -0.45833,0.5625 -0.25,0.20833 -0.52083,0.20833 -0.47917,0 -0.77084,-0.39583 -0.29166,-0.41667 -0.58333,-0.89584 -0.27083,-0.5 -0.625,-0.89583 -0.35417,-0.41667 -0.97917,-0.41667 -0.9375,0 -1.85416,0.66667 -0.89584,0.66667 -1.72917,1.75 -0.83333,1.0625 -1.54167,2.39583 -0.70833,1.3125 -1.22916,2.64584 -0.52084,1.3125 -0.8125,2.5 -0.29167,1.16667 -0.29167,1.9375 0,0.85417 0.3125,1.45833 0.33333,0.58334 0.83333,0.95834 0.52084,0.375 1.14584,0.54166 0.64583,0.16667 1.27083,0.16667 0.70833,0 1.60417,-0.20833 0.91666,-0.20834 1.83333,-0.54167 0.91667,-0.33333 1.77083,-0.75 0.85417,-0.41667 1.47917,-0.85417 1.64583,-1.125 3.29167,-2.625 1.64583,-1.52083 3.125,-3.1875 1.5,-1.66667 2.75,-3.375 1.27083,-1.70833 2.16666,-3.25 0.16667,-0.27083 0.35417,-0.375 0.1875,-0.125 0.375,-0.125 0.33333,0 0.58333,0.22917 0.27084,0.22916 0.27084,0.4375 z" />
      <path
         id="path5098"
         style="font-style:normal;font-variant:normal;font-weight:normal;font-stretch:normal;font-size:42.66666794px;font-family:'Segoe Script';-inkscape-font-specification:'Segoe Script'"
         d="m 137.63932,418.37038 q -1.66666,2.3125 -3.39583,4.1875 -1.70833,1.875 -3.39583,3.20833 -1.66667,1.3125 -3.27084,2.04167 -1.58333,0.72916 -2.95833,0.72916 -2.22917,0 -3.52083,-1.91666 -1.27084,-1.91667 -1.27084,-5.64584 0,-2.08333 0.25,-4.58333 0.25,-2.5 0.64584,-5.0625 0.39583,-2.5625 0.875,-5.04167 0.5,-2.47917 1,-4.52083 0.375,-1.5625 0.75,-2.70834 0.39583,-1.14583 0.83333,-1.875 0.4375,-0.72916 0.9375,-1.08333 0.52083,-0.35417 1.16667,-0.35417 0.41666,0 0.75,0.1875 0.35416,0.1875 0.60416,0.47917 0.25,0.29167 0.375,0.6875 0.14584,0.375 0.14584,0.77083 0,0.375 -0.20834,1.02084 -0.1875,0.625 -0.5,1.39583 -0.29166,0.77083 -0.64583,1.625 -0.35417,0.85417 -0.6875,1.64583 -0.33333,0.77084 -0.60417,1.4375 -0.25,0.66667 -0.35416,1.08334 -0.3125,1.35416 -0.625,3.16666 -0.3125,1.79167 -0.58334,3.72917 -0.25,1.91667 -0.41666,3.83334 -0.16667,1.89583 -0.16667,3.47916 0,1.39584 0.25,2.3125 0.25,0.89584 0.625,1.4375 0.39583,0.52084 0.83333,0.75 0.45834,0.20834 0.85417,0.20834 0.72917,0 1.60417,-0.375 0.875,-0.39584 1.83333,-1.08334 0.97917,-0.6875 2,-1.60416 1.04167,-0.9375 2.08333,-2.02084 1.04167,-1.08333 2.0625,-2.27083 1.02084,-1.20833 1.95834,-2.4375 0.35416,-0.47917 0.5625,-0.72917 0.20833,-0.25 0.39583,-0.25 0.22917,0 0.33333,0.27083 0.125,0.25 0.125,0.66667 0,0.33333 -0.10416,0.75 -0.10417,0.39584 -0.27084,0.83334 -0.16666,0.41666 -0.39583,0.83333 -0.22917,0.41667 -0.47917,0.79167 z" />
      <path
         id="path5100"
         style="font-style:normal;font-variant:normal;font-weight:normal;font-stretch:normal;font-size:42.66666794px;font-family:'Segoe Script';-inkscape-font-specification:'Segoe Script'"
         d="m 144.86849,397.20371 q 0,1.35416 -0.70833,2.3125 -0.6875,0.95833 -2.02083,0.95833 -0.83334,0 -1.85417,-0.25 -1,-0.25 -1,-0.8125 0,-1.02083 0.625,-1.9375 0.64583,-0.9375 1.54167,-1.52083 0.70833,-0.41667 0.9375,-0.41667 1.1875,0 1.83333,0.33333 0.64583,0.3125 0.64583,1.33334 z m 13.64584,16.9375 q 0.0208,0.4375 -0.39584,1.1875 -0.39583,0.75 -1.10416,1.70833 -0.6875,0.9375 -1.625,2.02084 -0.91667,1.08333 -1.9375,2.16666 -1.16667,1.25 -2.47917,2.41667 -1.29167,1.14583 -2.77083,2.22917 -2.91667,2.16666 -5.20834,2.16666 -2.52083,0 -3.91666,-1.6875 -1.39584,-1.70833 -1.89584,-4.125 -0.5,-2.39583 -0.5,-4.9375 0,-1.0625 0.25,-3.3125 0.125,-1.125 0.25,-1.9375 0.125,-0.8125 0.27084,-1.3125 0.29166,-0.97917 1.22916,-1.70833 0.95834,-0.77084 2,-0.77084 0.5625,0 0.5625,1.0625 0,0.70834 -0.14583,1.60417 -0.125,0.89583 -0.27083,1.77083 -0.27084,1.64584 -0.39584,2.95834 -0.125,1.29167 -0.125,2.25 0,2.10417 0.58334,4.25 0.58333,2.1875 2.10416,2.1875 1.54167,0 3.58334,-1.125 1.02083,-0.58333 2.04166,-1.29167 1.02084,-0.70833 2.04167,-1.58333 1.04167,-0.875 2,-1.75 0.95833,-0.89583 1.875,-1.83333 0.91667,-0.9375 1.64583,-1.75001 0.72917,-0.8125 1.27084,-1.5 0.0208,-0.0417 0.0625,-0.125 0.0625,-0.10416 0.125,-0.1875 0.0625,-0.10416 0.125,-0.16666 0.0625,-0.0625 0.125,-0.0417 0.29166,0 0.4375,0.45833 0.1875,0.4375 0.1875,0.70834 z" />
      <path
         id="path5102"
         style="font-style:normal;font-variant:normal;font-weight:normal;font-stretch:normal;font-size:42.66666794px;font-family:'Segoe Script';-inkscape-font-specification:'Segoe Script'"
         d="m 181.59766,408.89121 q 0,0.3125 -0.1875,0.89583 -0.1875,0.58333 -0.52083,1.29167 -0.3125,0.70833 -0.75,1.47916 -0.41667,0.75 -0.89584,1.39584 -1.45833,1.97917 -2.875,3.58333 -1.39583,1.58334 -2.8125,2.89584 -1.39583,1.3125 -2.85416,2.375 -1.4375,1.0625 -2.95834,1.9375 -1.0625,0.60416 -1.9375,0.97916 -0.875,0.375 -1.72916,0.58334 -0.85417,0.1875 -1.77084,0.25 -0.89583,0.0625 -2,0.0625 -1.10416,0 -2.04166,-0.35417 -0.91667,-0.35417 -1.58334,-1.08333 -0.66666,-0.75 -1.04166,-1.875 -0.375,-1.14584 -0.375,-2.70834 0,-0.875 0.25,-2 0.25,-1.14583 0.6875,-2.375 0.4375,-1.25 1.02083,-2.52083 0.60417,-1.27084 1.29167,-2.41667 0.6875,-1.16667 1.4375,-2.14583 0.77083,-0.97917 1.54166,-1.625 0.41667,-0.35417 1.04167,-0.6875 0.625,-0.33334 1.29167,-0.58334 0.66666,-0.27083 1.3125,-0.41666 0.66666,-0.16667 1.14583,-0.16667 0.64583,0 1.35417,0.3125 0.70833,0.3125 1.29166,0.79167 0.60417,0.45833 0.97917,1.02083 0.375,0.54167 0.375,1.04167 0,0.375 -0.125,0.77083 -0.125,0.39583 -0.33333,0.72917 -0.20834,0.33333 -0.45834,0.5625 -0.25,0.20833 -0.52083,0.20833 -0.47917,0 -0.77083,-0.39583 -0.29167,-0.41667 -0.58334,-0.89584 -0.27083,-0.5 -0.625,-0.89583 -0.35416,-0.41667 -0.97916,-0.41667 -0.9375,0 -1.85417,0.66667 -0.89583,0.66667 -1.72917,1.75 -0.83333,1.0625 -1.54166,2.39583 -0.70834,1.3125 -1.22917,2.64584 -0.52083,1.3125 -0.8125,2.5 -0.29167,1.16667 -0.29167,1.9375 0,0.85417 0.3125,1.45833 0.33334,0.58334 0.83334,0.95834 0.52083,0.375 1.14583,0.54166 0.64583,0.16667 1.27083,0.16667 0.70834,0 1.60417,-0.20833 0.91667,-0.20834 1.83333,-0.54167 0.91667,-0.33333 1.77084,-0.75 0.85416,-0.41667 1.47916,-0.85417 1.64584,-1.125 3.29167,-2.625 1.64583,-1.52083 3.125,-3.1875 1.5,-1.66667 2.75,-3.375 1.27083,-1.70833 2.16667,-3.25 0.16666,-0.27083 0.35416,-0.375 0.1875,-0.125 0.375,-0.125 0.33334,0 0.58334,0.22917 0.27083,0.22916 0.27083,0.4375 z" />
      <path
         id="path5104"
         style="font-style:normal;font-variant:normal;font-weight:normal;font-stretch:normal;font-size:42.66666794px;font-family:'Segoe Script';-inkscape-font-specification:'Segoe Script'"
         d="m 205.78516,425.12038 q 0,0.4375 -0.5,0.85416 -0.47916,0.39584 -1.16666,0.6875 -0.6875,0.29167 -1.41667,0.47917 -0.70833,0.16667 -1.16667,0.16667 -1.875,0 -3.5,-0.39584 -1.60416,-0.39583 -3.27083,-1.08333 -1.375,-0.5625 -2.625,-1.29167 -1.25,-0.72916 -2.5,-1.52083 -1.22917,-0.79167 -2.5,-1.60417 -1.27083,-0.83333 -2.6875,-1.625 -0.0417,0.0417 -0.20834,0.20834 -0.14583,0.14583 -0.35416,0.33333 -0.1875,0.1875 -0.41667,0.39583 -0.20833,0.1875 -0.35417,0.3125 -0.54166,0.47917 -0.85416,0.83334 -0.29167,0.35416 -0.5,0.6875 -0.1875,0.3125 -0.3125,0.625 -0.125,0.3125 -0.29167,0.6875 0.0833,0.39583 -0.0417,0.95833 -0.10416,0.54167 -0.10416,1 0,1.35417 -0.58334,2.04167 -0.5625,0.6875 -1.79166,0.6875 -0.75,0 -0.95834,-0.375 -0.1875,-0.35417 -0.1875,-1.16667 0,-0.25 0.0833,-1.0625 0.10416,-0.83333 0.25,-2.02083 0.14583,-1.20834 0.33333,-2.66667 0.20833,-1.47917 0.41667,-3 0.22916,-1.54167 0.4375,-3.04167 0.20833,-1.52083 0.39583,-2.79167 0.1875,-1.29166 0.3125,-2.22916 0.14583,-0.9375 0.20833,-1.35417 0.0417,-0.375 0.10417,-1.125 0.0625,-0.75 0.125,-1.6875 0.0833,-0.9375 0.16667,-1.95833 0.0833,-1.04167 0.14583,-1.95834 0.0833,-0.91666 0.125,-1.625 0.0625,-0.70833 0.0833,-1 l 0.16667,-2.04166 q 0.0208,-0.35417 0.29167,-0.66667 0.27083,-0.3125 0.64583,-0.54167 0.39583,-0.22916 0.83333,-0.35416 0.4375,-0.14584 0.8125,-0.14584 0.35417,0 0.625,0.14584 0.27084,0.14583 0.4375,0.35416 0.1875,0.20834 0.27084,0.45834 0.0833,0.25 0.0833,0.4375 0,0.29166 -0.10417,1.0625 -0.10416,0.77083 -0.29166,1.85416 -0.1875,1.08334 -0.41667,2.375 -0.22917,1.29167 -0.47917,2.625 -0.22916,1.3125 -0.45833,2.58334 -0.22917,1.25 -0.41667,2.27083 -0.1875,1 -0.3125,1.66667 -0.125,0.66666 -0.14583,0.8125 -0.3125,2.52083 -0.54167,4.29167 -0.22916,1.77083 -0.39583,2.79166 0.20833,-0.22916 0.75,-0.83333 0.5625,-0.625 1.29167,-1.41667 0.72916,-0.8125 1.54166,-1.70833 0.81251,-0.89584 1.52084,-1.6875 0.70833,-0.8125 1.22917,-1.39584 0.54166,-0.60416 0.70833,-0.8125 0.85417,-1.10416 1.75,-2.22916 0.91667,-1.14584 1.8125,-2.0625 0.91667,-0.91667 1.8125,-1.47917 0.89583,-0.58333 1.75,-0.58333 1.33333,0 1.33333,0.72916 0,0.33334 -0.22916,0.8125 -0.20834,0.45834 -0.52084,0.9375 -0.3125,0.47917 -0.66666,0.9375 -0.33334,0.4375 -0.60417,0.72917 -0.33333,0.375 -0.85417,0.89583 -0.5,0.5 -1.10416,1.08334 -0.58334,0.58333 -1.22917,1.20833 -0.64583,0.60417 -1.25,1.16667 -0.58333,0.5625 -1.08333,1.04166 -0.47917,0.45834 -0.77084,0.75 -0.25,0.25001 -0.47916,0.45834 -0.22917,0.20833 -0.45834,0.41667 -0.20833,0.20833 -0.41666,0.47916 -0.20834,0.25 -0.45834,0.60417 2.02084,1.22917 4.0625,2.39583 2.0625,1.14584 4.08334,2.08334 2.04166,0.9375 4.02083,1.625 2,0.66666 3.89583,0.95833 0.75,0.125 1.3125,0.125 0.58334,-0.0208 0.95834,0 0.39583,0 0.58333,0.0833 0.20833,0.0625 0.20833,0.33334 z" />
      <path
         id="path5106"
         style="font-style:normal;font-variant:normal;font-weight:normal;font-stretch:normal;font-size:42.66666794px;font-family:'Segoe Script';-inkscape-font-specification:'Segoe Script'"
         d="m 240.8685,411.55787 q 0,0.3125 -0.29167,0.54167 -0.27083,0.20833 -0.72917,0.39583 -0.45833,0.1875 -1.04166,0.35417 -0.5625,0.14583 -1.125,0.33333 -1.35417,0.41667 -2.79167,1.20834 -1.41667,0.77083 -2.95833,2.33333 -1.20834,1.22917 -2.08334,2.58334 -0.85416,1.33333 -1.47916,2.83333 -0.625,1.5 -1.0625,3.1875 -0.4375,1.66667 -0.75,3.5625 -0.22917,0.25 -0.39584,0.4375 -0.16666,0.1875 -0.35416,0.3125 -0.1875,0.125 -0.4375,0.1875 -0.22917,0.0833 -0.60417,0.0833 -0.54167,0 -0.85417,-0.47916 -0.29166,-0.45834 -0.4375,-1.10417 -0.14583,-0.625 -0.1875,-1.27083 -0.0208,-0.64584 -0.0208,-1.02084 0,-0.39583 0.0208,-1 0.0208,-0.625 0.0417,-1.35416 0.0417,-0.72917 0.0833,-1.5 0.0417,-0.79167 0.0625,-1.52084 0.0417,-0.72916 0.0625,-1.33333 0.0208,-0.625 0.0208,-1.02083 0,-0.95834 -0.0417,-1.58334 -0.0208,-0.625 -0.0625,-1.0625 -0.0417,-0.4375 -0.10417,-0.77083 -0.0625,-0.35417 -0.10416,-0.75 -0.0417,-0.41667 -0.0833,-0.95834 -0.0208,-0.5625 -0.0208,-1.4375 0,-0.4375 0.1875,-0.83333 0.1875,-0.41667 0.47917,-0.70833 0.3125,-0.3125 0.6875,-0.47917 0.39583,-0.1875 0.77083,-0.1875 0.4375,0 0.8125,0.1875 0.375,0.1875 0.64583,0.47917 0.27084,0.29166 0.41667,0.6875 0.14583,0.375 0.14583,0.77083 0,0.79167 -0.10416,1.89583 -0.10417,1.08334 -0.22917,2.22917 -0.10417,1.125 -0.1875,2.1875 -0.0833,1.04167 -0.0625,1.75 0.89583,-1.70833 2.0625,-3.45833 1.1875,-1.75 2.625,-3.16667 1.45833,-1.4375 3.14583,-2.33333 1.6875,-0.91667 3.60417,-0.91667 0.375,0 0.85417,0.0833 0.47916,0.0833 0.89583,0.29167 0.41667,0.20833 0.6875,0.54167 0.29167,0.3125 0.29167,0.79166 z" />
      <path
         id="path5108"
         style="font-style:normal;font-variant:normal;font-weight:normal;font-stretch:normal;font-size:42.66666794px;font-family:'Segoe Script';-inkscape-font-specification:'Segoe Script'"
         d="m 267.681,413.32871 q 0,0.3125 -0.45833,1.10416 -1.08334,1.56251 -2.4375,3.12501 -1.33334,1.5625 -2.85417,2.97916 -1.5,1.39584 -3.14583,2.625 -1.625,1.20834 -3.29167,2.10417 -1.66667,0.875 -3.33333,1.35417 -1.64584,0.47916 -3.1875,0.45833 -3.33334,0 -5.1875,-1.9375 -1.83334,-1.9375 -1.83334,-5.85417 0,-3.27083 1,-6.35417 1.02084,-3.08333 3.45834,-5.9375 0.45833,-0.5 1.02083,-0.95833 0.58333,-0.45833 1.20833,-0.8125 0.64584,-0.35417 1.3125,-0.5625 0.6875,-0.20833 1.375,-0.25 0.16667,0 0.45834,0.0417 0.29166,0.0417 0.625,0.14583 0.33333,0.10417 0.64583,0.27083 0.3125,0.14584 0.5,0.375 0.58333,0.66667 0.91667,1.375 0.35416,0.70834 0.39583,1.5625 0.0417,0.95834 -0.22917,1.89584 -0.25,0.91666 -0.875,1.89583 -0.60416,0.95833 -1.60416,2 -1,1.02083 -2.41667,2.20834 -0.89583,0.75 -2,1.66666 -1.08333,0.89584 -2.625,1.89584 0,2.02083 1.20833,3.08333 1.22917,1.04167 3.35417,1.04167 1.1875,0 2.39583,-0.3125 1.20834,-0.3125 2.375,-0.8125 1.16667,-0.52084 2.25,-1.16667 1.10417,-0.66667 2.0625,-1.35417 1.77084,-1.29166 3.20834,-2.5625 1.4375,-1.29166 2.85416,-2.70833 l 1.125,-1.125 q 1.02084,-0.89584 1.47917,-0.89584 0.25,0 0.25,0.39584 z m -15.91667,-4.14584 q -0.0208,-0.3125 -0.10416,-0.60416 -0.0625,-0.3125 -0.20834,-0.54167 -0.14583,-0.22917 -0.33333,-0.35417 -0.1875,-0.14583 -0.4375,-0.14583 -1.10417,0.0625 -2.20833,1.35417 -1.10417,1.27083 -2.08334,3.375 -0.22916,0.45833 -0.41666,1.04166 -0.16667,0.5625 -0.33334,1.16667 -0.14583,0.58333 -0.27083,1.16667 -0.10417,0.58333 -0.1875,1.04167 1.08333,-0.8125 2,-1.50001 0.91667,-0.6875 1.70833,-1.41666 0.5,-0.45834 1.02084,-0.97917 0.52083,-0.54167 0.9375,-1.125 0.4375,-0.58333 0.6875,-1.20833 0.25,-0.625 0.22916,-1.27084 z" />
      <path
         id="path5110"
         style="font-style:normal;font-variant:normal;font-weight:normal;font-stretch:normal;font-size:42.66666794px;font-family:'Segoe Script';-inkscape-font-specification:'Segoe Script'"
         d="m 279.72267,399.39121 q 0,0.8125 -0.1875,1.6875 -0.16667,0.875 -0.45834,1.70833 -0.27083,0.83333 -0.64583,1.58333 -0.35417,0.72917 -0.75,1.29167 -0.0625,0.0833 -0.25,0.25 -0.16667,0.14583 -0.375,0.29167 -0.20833,0.14583 -0.4375,0.25 -0.20833,0.10416 -0.33333,0.10416 -0.16667,0 -0.16667,-0.16666 0,-0.25 0.125,-0.70834 0.125,-0.47916 0.27083,-1.14583 0.14584,-0.66667 0.27084,-1.52083 0.125,-0.85417 0.125,-1.91667 0,-1.16667 -0.41667,-1.89583 -0.39583,-0.75 -1.04167,-0.75 -0.39583,0 -0.8125,0.35416 -0.41666,0.33334 -0.83333,0.95834 -0.41667,0.60416 -0.8125,1.45833 -0.39583,0.83333 -0.72917,1.8125 -0.16666,0.5 -0.35416,1.27083 -0.16667,0.75 -0.33334,1.64584 -0.14583,0.875 -0.29166,1.83333 -0.125,0.95833 -0.25,1.85417 -0.10417,0.89583 -0.1875,1.66666 -0.0625,0.77084 -0.0833,1.27084 0.83334,-0.0625 1.95834,-0.20834 1.14583,-0.16666 2.35416,-0.35416 1.20834,-0.20834 2.41667,-0.41667 1.20833,-0.22917 2.1875,-0.39583 1,-0.1875 1.66667,-0.3125 0.6875,-0.14584 0.85416,-0.1875 0.29167,-0.0625 0.70834,-0.1875 0.4375,-0.125 0.89583,-0.22917 0.45833,-0.125 0.85417,-0.20833 0.41666,-0.10417 0.64583,-0.10417 0.25,0.125 0.29167,0.20833 0.0625,0.0625 0.0625,0.10417 0,0.29167 -0.1875,0.625 -0.1875,0.33333 -0.45834,0.64583 -0.25,0.29167 -0.5625,0.52084 -0.29166,0.22916 -0.5,0.3125 -1.77083,0.6875 -3.64583,1.1875 -1.85417,0.5 -3.625,0.875 -1.75,0.375 -3.33333,0.64583 -1.58334,0.25 -2.8125,0.4375 -0.10417,1.33334 -0.27084,2.77084 -0.14583,1.41666 -0.3125,2.85416 -0.16666,1.41667 -0.35416,2.79167 -0.1875,1.375 -0.375,2.58333 -0.1875,1.1875 -0.375,2.14584 -0.16667,0.97916 -0.3125,1.625 -0.45834,1.95833 -1.1875,3.4375 -0.70834,1.5 -1.60417,2.5 -0.875,1 -1.91667,1.5 -1.04166,0.5 -2.14583,0.5 -0.72917,0 -1.3125,-0.35417 -0.58333,-0.33333 -0.97917,-0.79167 -0.41666,-0.45833 -0.625,-0.9375 -0.22916,-0.45833 -0.22916,-0.70833 0,-0.70833 0.20833,-0.97917 0.20833,-0.25 0.5,-0.25 0.20833,0 0.5,0.14584 0.29167,0.14583 0.64583,0.33333 0.35417,0.1875 0.72917,0.33333 0.39583,0.14584 0.77083,0.14584 0.9375,0 1.66667,-0.60417 0.72917,-0.58333 1.25,-1.54167 0.22917,-0.4375 0.5,-1.47916 0.27083,-1.02084 0.52083,-2.41667 0.27084,-1.39583 0.52084,-3.02083 0.25,-1.625 0.41666,-3.22917 0.1875,-1.60417 0.29167,-3.0625 0.125,-1.47917 0.125,-2.5625 0,-0.35417 0,-0.58333 0.0208,-0.22917 -0.0417,-0.35417 -0.0625,-0.125 -0.25,-0.16667 -0.1875,-0.0625 -0.5625,-0.0625 -0.10416,0 -0.35416,0.0208 -0.22917,0.0208 -0.47917,0.0208 -0.22917,0 -0.41667,-0.0625 -0.16666,-0.0625 -0.16666,-0.22917 0,-0.3125 0.10416,-0.64583 0.10417,-0.33334 0.27084,-0.60417 0.16666,-0.29167 0.39583,-0.5 0.22917,-0.22917 0.45833,-0.33333 0.22917,-0.10417 0.35417,-0.1875 0.125,-0.10417 0.20833,-0.20834 0.10417,-0.10416 0.1875,-0.22916 0.10417,-0.14584 0.27084,-0.33334 0.33333,-0.375 0.60416,-1.39583 0.27084,-1.02083 0.52084,-2.41667 0.27083,-1.41666 0.58333,-3.0625 0.3125,-1.66666 0.75,-3.29166 0.89583,-3.375 2.60417,-5.20834 1.70833,-1.83333 3.83333,-1.83333 0.8125,0 1.47917,0.29167 0.6875,0.29166 1.16666,0.79166 0.5,0.5 0.75,1.20834 0.27084,0.6875 0.27084,1.5 z" />
      <path
         id="path5112"
         style="font-style:normal;font-variant:normal;font-weight:normal;font-stretch:normal;font-size:42.66666794px;font-family:'Segoe Script';-inkscape-font-specification:'Segoe Script'"
         d="m 300.11849,411.55787 q 0,0.3125 -0.29167,0.54167 -0.27083,0.20833 -0.72916,0.39583 -0.45834,0.1875 -1.04167,0.35417 -0.5625,0.14583 -1.125,0.33333 -1.35417,0.41667 -2.79167,1.20834 -1.41666,0.77083 -2.95833,2.33333 -1.20833,1.22917 -2.08333,2.58334 -0.85417,1.33333 -1.47917,2.83333 -0.625,1.5 -1.0625,3.1875 -0.4375,1.66667 -0.75,3.5625 -0.22917,0.25 -0.39583,0.4375 -0.16667,0.1875 -0.35417,0.3125 -0.1875,0.125 -0.4375,0.1875 -0.22917,0.0833 -0.60417,0.0833 -0.54166,0 -0.85416,-0.47916 -0.29167,-0.45834 -0.4375,-1.10417 -0.14584,-0.625 -0.1875,-1.27083 -0.0208,-0.64584 -0.0208,-1.02084 0,-0.39583 0.0208,-1 0.0208,-0.625 0.0417,-1.35416 0.0417,-0.72917 0.0833,-1.5 0.0417,-0.79167 0.0625,-1.52084 0.0417,-0.72916 0.0625,-1.33333 0.0208,-0.625 0.0208,-1.02083 0,-0.95834 -0.0417,-1.58334 -0.0208,-0.625 -0.0625,-1.0625 -0.0417,-0.4375 -0.10416,-0.77083 -0.0625,-0.35417 -0.10417,-0.75 -0.0417,-0.41667 -0.0833,-0.95834 -0.0208,-0.5625 -0.0208,-1.4375 0,-0.4375 0.1875,-0.83333 0.1875,-0.41667 0.47917,-0.70833 0.3125,-0.3125 0.6875,-0.47917 0.39583,-0.1875 0.77083,-0.1875 0.4375,0 0.8125,0.1875 0.375,0.1875 0.64584,0.47917 0.27083,0.29166 0.41666,0.6875 0.14584,0.375 0.14584,0.77083 0,0.79167 -0.10417,1.89583 -0.10417,1.08334 -0.22917,2.22917 -0.10416,1.125 -0.1875,2.1875 -0.0833,1.04167 -0.0625,1.75 0.89584,-1.70833 2.0625,-3.45833 1.1875,-1.75 2.625,-3.16667 1.45834,-1.4375 3.14584,-2.33333 1.6875,-0.91667 3.60416,-0.91667 0.375,0 0.85417,0.0833 0.47917,0.0833 0.89583,0.29167 0.41667,0.20833 0.6875,0.54167 0.29167,0.3125 0.29167,0.79166 z" />
      <path
         id="path5114"
         style="font-style:normal;font-variant:normal;font-weight:normal;font-stretch:normal;font-size:42.66666794px;font-family:'Segoe Script';-inkscape-font-specification:'Segoe Script'"
         d="m 326.931,413.32871 q 0,0.3125 -0.45833,1.10416 -1.08334,1.56251 -2.4375,3.12501 -1.33334,1.5625 -2.85417,2.97916 -1.5,1.39584 -3.14583,2.625 -1.625,1.20834 -3.29167,2.10417 -1.66667,0.875 -3.33333,1.35417 -1.64584,0.47916 -3.1875,0.45833 -3.33334,0 -5.1875,-1.9375 -1.83334,-1.9375 -1.83334,-5.85417 0,-3.27083 1,-6.35417 1.02084,-3.08333 3.45834,-5.9375 0.45833,-0.5 1.02083,-0.95833 0.58333,-0.45833 1.20833,-0.8125 0.64584,-0.35417 1.3125,-0.5625 0.6875,-0.20833 1.375,-0.25 0.16667,0 0.45834,0.0417 0.29166,0.0417 0.625,0.14583 0.33333,0.10417 0.64583,0.27083 0.3125,0.14584 0.5,0.375 0.58333,0.66667 0.91667,1.375 0.35416,0.70834 0.39583,1.5625 0.0417,0.95834 -0.22917,1.89584 -0.25,0.91666 -0.875,1.89583 -0.60416,0.95833 -1.60416,2 -1,1.02083 -2.41667,2.20834 -0.89583,0.75 -2,1.66666 -1.08333,0.89584 -2.625,1.89584 0,2.02083 1.20833,3.08333 1.22917,1.04167 3.35417,1.04167 1.1875,0 2.39583,-0.3125 1.20834,-0.3125 2.375,-0.8125 1.16667,-0.52084 2.25,-1.16667 1.10417,-0.66667 2.0625,-1.35417 1.77084,-1.29166 3.20834,-2.5625 1.4375,-1.29166 2.85416,-2.70833 l 1.125,-1.125 q 1.02084,-0.89584 1.47917,-0.89584 0.25,0 0.25,0.39584 z m -15.91667,-4.14584 q -0.0208,-0.3125 -0.10416,-0.60416 -0.0625,-0.3125 -0.20834,-0.54167 -0.14583,-0.22917 -0.33333,-0.35417 -0.1875,-0.14583 -0.4375,-0.14583 -1.10417,0.0625 -2.20833,1.35417 -1.10417,1.27083 -2.08334,3.375 -0.22916,0.45833 -0.41666,1.04166 -0.16667,0.5625 -0.33334,1.16667 -0.14583,0.58333 -0.27083,1.16667 -0.10417,0.58333 -0.1875,1.04167 1.08333,-0.8125 2,-1.50001 0.91667,-0.6875 1.70833,-1.41666 0.5,-0.45834 1.02084,-0.97917 0.52083,-0.54167 0.9375,-1.125 0.4375,-0.58333 0.6875,-1.20833 0.25,-0.625 0.22916,-1.27084 z" />
      <path
         id="path5116"
         style="font-style:normal;font-variant:normal;font-weight:normal;font-stretch:normal;font-size:42.66666794px;font-family:'Segoe Script';-inkscape-font-specification:'Segoe Script'"
         d="m 331.72267,407.39121 q 0,0.20833 -0.14584,0.5625 -0.14583,0.35416 -0.39583,0.77083 -0.25,0.39583 -0.58333,0.83333 -0.33334,0.41667 -0.70834,0.77084 -0.25,0.22916 -0.54166,0.54166 -0.29167,0.29167 -0.54167,0.64584 -0.22917,0.33333 -0.39583,0.70833 -0.14584,0.375 -0.14584,0.70833 0,0.97917 0.35417,1.9375 0.375,0.93751 1.1875,2.16667 0.375,0.5625 0.875,1.27084 0.5,0.70833 1,1.52083 0.5,0.79167 0.91667,1.6875 0.41666,0.875 0.625,1.79167 1.9375,-1.625 3.77083,-3.5 1.85417,-1.89584 3.4375,-3.8125 1.60417,-1.91667 2.875,-3.72917 1.27083,-1.8125 2.0625,-3.29167 0.33333,-0.60417 0.54167,-1 0.22916,-0.41667 0.41666,-0.66667 0.1875,-0.25 0.35417,-0.35416 0.1875,-0.10417 0.41667,-0.10417 0.41666,0 0.60416,0.29167 0.1875,0.29166 0.1875,0.8125 0,0.47916 -0.41666,1.52083 -0.39584,1.04167 -1.27084,2.58333 -0.875,1.52084 -2.27083,3.5 -1.375,1.95834 -3.33333,4.31251 -1.08334,1.29166 -2.45834,2.6875 -1.375,1.375 -2.875,2.6875 -1.5,1.3125 -3.02083,2.47916 -1.52083,1.1875 -2.875,2.0625 -1.33333,0.89584 -2.4375,1.41667 -1.08333,0.52083 -1.70833,0.52083 -0.33334,0 -0.64584,-0.20833 -0.29166,-0.1875 -0.52083,-0.47917 -0.20833,-0.27083 -0.35417,-0.58333 -0.125,-0.3125 -0.125,-0.5625 0,-0.45833 0.20834,-0.8125 0.22916,-0.35417 0.58333,-0.64583 0.375,-0.29167 0.83333,-0.52084 0.47917,-0.22916 0.95834,-0.4375 0.3125,-0.125 0.70833,-0.27083 0.39583,-0.14583 0.8125,-0.29167 0.41667,-0.16666 0.79167,-0.35416 0.39583,-0.20834 0.64583,-0.4375 0.4375,-0.41667 0.6875,-0.95834 0.25,-0.5625 0.25,-1.14583 0,-0.33333 -0.22917,-0.85417 -0.22916,-0.52083 -0.60416,-1.10416 -0.375,-0.60417 -0.83334,-1.25 -0.45833,-0.66667 -0.91666,-1.29167 -0.45834,-0.64583 -0.875,-1.20833 -0.39584,-0.58334 -0.64584,-1.02084 -0.47916,-0.79166 -0.83333,-1.72917 -0.35417,-0.9375 -0.35417,-1.9375 0,-0.35416 0.10417,-0.85416 0.10417,-0.52084 0.27083,-1.0625 0.16667,-0.54167 0.33334,-1.04167 0.1875,-0.5 0.35416,-0.83333 0.0625,-0.10417 0.27084,-0.4375 0.22916,-0.33334 0.54166,-0.75 0.33334,-0.41667 0.72917,-0.875 0.39583,-0.47917 0.79167,-0.875 0.41666,-0.39584 0.79166,-0.64584 0.39584,-0.25 0.70834,-0.25 0.875,0 1.45833,0.375 0.60417,0.375 0.60417,1.02084 z" />
      <path
         id="path5118"
         style="font-style:normal;font-variant:normal;font-weight:normal;font-stretch:normal;font-size:42.66666794px;font-family:'Segoe Script';-inkscape-font-specification:'Segoe Script'"
         d="m 373.53516,414.01621 q 0,0.1875 -0.0417,0.625 -0.0417,0.41666 -0.125,0.89583 -0.0625,0.45834 -0.14584,0.875 -0.0833,0.41667 -0.16666,0.58334 -0.79167,1.4375 -1.83334,2.77083 -1.02083,1.3125 -2.20833,2.3125 -1.1875,1 -2.45833,1.60417 -1.27084,0.60416 -2.54167,0.60416 -1.22917,0 -2.10417,-0.3125 -0.85416,-0.3125 -1.4375,-0.83333 -0.58333,-0.52083 -0.9375,-1.16667 -0.33333,-0.66666 -0.54166,-1.35416 -0.1875,-0.6875 -0.29167,-1.33334 -0.10417,-0.66666 -0.1875,-1.1875 -0.0625,-0.375 -0.0625,-0.875 0,-0.85416 0.10417,-1.89583 0.10416,-1.0625 0.10416,-1.97917 0,-0.64583 -0.10416,-1.10417 -0.0833,-0.47916 -0.33334,-0.66666 -0.45833,0.41666 -0.875,0.91666 -0.39583,0.5 -0.85416,1.08334 -0.45834,0.5625 -0.97917,1.22916 -0.52083,0.66667 -1.1875,1.41667 -0.14583,0.16667 -0.52083,0.79167 -0.35417,0.625 -0.875,1.54167 -0.5,0.89583 -1.125,1.97916 -0.60417,1.08334 -1.27084,2.20834 -0.66667,1.10416 -1.35417,2.16666 -0.66666,1.04167 -1.27083,1.85417 -0.60417,0.8125 -1.125,1.29167 -0.52083,0.5 -0.85417,0.5 -0.375,0 -0.625,-0.0625 -0.22916,-0.0625 -0.41666,-0.125 -0.16667,-0.0625 -0.3125,-0.125 -0.125,-0.0625 -0.27084,-0.0625 -0.16666,-0.58334 -0.25,-1.39584 -0.0833,-0.8125 -0.125,-1.625 -0.0417,-0.83333 -0.0625,-1.52083 0,-0.70833 0,-1.0625 0,-2.79167 0.39584,-5.875 0.41666,-3.08334 0.97916,-6.45834 0.5625,-3.39583 1.16667,-7.08333 0.60417,-3.70833 1,-7.75 0.125,-0.58333 0.35417,-1.04167 0.25,-0.45833 0.52083,-0.77083 0.27083,-0.33333 0.52083,-0.5 0.27084,-0.16667 0.41667,-0.16667 h 0.0208 q 0.3125,0.0417 0.60417,0.3125 0.3125,0.25 0.54167,0.66667 0.22916,0.41667 0.375,0.9375 0.14583,0.5 0.14583,1.04167 0,0.39583 -0.0833,0.70833 -0.14584,0.66667 -0.25,1.14583 -0.10417,0.45834 -0.20834,0.875 -0.0833,0.39584 -0.16666,0.77084 -0.0625,0.375 -0.16667,0.85416 -0.0833,0.47917 -0.20833,1.125 -0.10417,0.64584 -0.27084,1.54167 -0.0208,0.16667 -0.14583,0.85417 -0.10417,0.66666 -0.27083,1.66666 -0.16667,0.97917 -0.375,2.20834 -0.20834,1.22916 -0.41667,2.5 -0.20833,1.25 -0.41667,2.47916 -0.1875,1.20834 -0.35416,2.20834 -0.14584,1 -0.25,1.6875 -0.0833,0.66667 -0.0833,0.85417 0,0.20833 -0.0417,0.54166 -0.0208,0.33334 -0.0625,0.72917 -0.0208,0.39583 -0.0417,0.83333 -0.0208,0.41667 -0.0208,0.83334 0,0.41666 0.0208,0.79166 0.0417,0.35417 0.14583,0.625 0.52084,-0.39583 1.10417,-1.0625 0.60417,-0.6875 1.22917,-1.52083 0.64583,-0.83333 1.29166,-1.77083 0.66667,-0.9375 1.31251,-1.85417 0.66666,-0.9375 1.27083,-1.79167 0.625,-0.85417 1.1875,-1.5 0.25,-0.45833 0.66667,-1.02083 0.41666,-0.5625 0.875,-1.10417 0.47916,-0.5625 0.95833,-1.02083 0.5,-0.47917 0.89583,-0.79167 0.85417,-0.64583 1.54167,-0.79167 0.6875,-0.14583 1.29167,-0.14583 0.20833,0 0.375,0.3125 0.1875,0.29167 0.33333,0.72917 0.14583,0.41666 0.22917,0.89583 0.0833,0.47917 0.0833,0.83333 0,0.33334 -0.10417,0.9375 -0.0833,0.60417 -0.1875,1.35417 -0.10416,0.75 -0.20833,1.5625 -0.0833,0.8125 -0.0833,1.5625 0,0.125 0,0.27084 0.0208,0.125 0.0208,0.25 0.0417,0.58333 0.125,1.41666 0.10417,0.8125 0.39583,1.58334 0.3125,0.75 0.875,1.29166 0.58334,0.52084 1.58334,0.52084 1.02083,0 1.95833,-0.375 0.9375,-0.39584 1.85417,-1.125 0.9375,-0.75 1.89583,-1.8125 0.95833,-1.08334 2.02083,-2.47917 0.375,-0.47917 0.8125,-0.8125 0.4375,-0.33334 0.60417,-0.33334 0.0833,0 0.0833,0.0833 z" />
      <path
         id="path5120"
         style="font-style:normal;font-variant:normal;font-weight:normal;font-stretch:normal;font-size:42.66666794px;font-family:'Segoe Script';-inkscape-font-specification:'Segoe Script'"
         d="m 378.61849,398.09954 q 0,0.45833 -0.3125,1.85417 -0.16667,0.70833 -0.33333,1.47916 -0.16667,0.75 -0.375,1.5625 -0.64584,2.89584 -1.27084,5.6875 -0.625,2.77084 -0.97916,5.54167 -0.0417,0.5 -0.0417,0.91667 0,0.41666 -0.0417,0.79167 -0.0208,0.375 -0.125,0.72916 -0.0833,0.33334 -0.27083,0.66667 -0.25,0 -0.625,-0.0417 -0.35417,-0.0417 -0.83333,-0.125 -0.9375,-0.1875 -1.22917,-0.41666 -0.0208,-0.16667 -0.0417,-0.4375 0,-0.29167 0,-0.64584 -0.0208,-1.0625 0.125,-2.27083 0.16667,-1.20834 0.41667,-2.45834 0.25,-1.27083 0.54167,-2.5625 0.29166,-1.29166 0.52083,-2.54166 0.25,-1.27084 0.39583,-2.45834 0.16667,-1.20833 0.14584,-2.29166 0,-0.5 0.1875,-1.5 0.1875,-1.02084 0.39583,-1.39584 0.14583,-0.22916 0.375,-0.47916 0.25,-0.25 0.60417,-0.5 0.70833,-0.52084 1.16666,-0.52084 0.52084,0 1.0625,0.4375 0.54167,0.41667 0.54167,0.97917 z m -3.75,25.41667 q 0,0.35417 -0.29167,1.875 -0.0833,0.58333 -1.02083,1.25 -0.89583,0.64583 -1.5,0.64583 -1.54167,0 -1.54167,-2.02083 0,-0.79167 0.75,-1.89583 0.77084,-1.08334 1.47917,-1.08334 0.22917,-0.0208 0.60417,0.10417 0.375,0.125 0.70833,0.33333 0.35417,0.1875 0.58333,0.41667 0.25,0.22917 0.22917,0.375 z" />
    </g>
    <path
       id="path5062"
       d="m 61.227533,130.12907 c -18.14286,83.91072 53.173057,47.5367 70.348067,-1.67959 15.35993,-44.015048 -12.14669,-60.335308 -44.553989,-2.94784 -29.996918,53.11912 23.572939,89.01252 66.058739,14.29094 38.39306,-67.523508 28.14444,-124.669197 28.14444,-124.669197"
       style="fill:none;stroke:#000000;stroke-width:1.96500003;stroke-linecap:round;stroke-linejoin:round;stroke-miterlimit:4;stroke-dasharray:none;stroke-opacity:1" />
    <path
       id="path5064"
       d="m 171.92237,22.55397 c 6.09676,-10.711373 5.26495,-16.3070296 5.60317,-20.1339066 0,0 6.2746,2.450374 13.13396,15.1058126 0,0 -2.34159,-1.758405 -18.71305,2.752369"
       style="fill:none;stroke:#000000;stroke-width:1.96500003;stroke-linecap:round;stroke-linejoin:round;stroke-miterlimit:4;stroke-dasharray:none;stroke-opacity:1" />
  </g>
</svg>
